<?xml version="1.0" encoding="utf-8"?>
<!-- Generator: Adobe Illustrator 28.1.0, SVG Export Plug-In . SVG Version: 6.00 Build 0)  -->
<svg version="1.1" id="Capa_1" xmlns="http://www.w3.org/2000/svg" xmlns:xlink="http://www.w3.org/1999/xlink" x="0px" y="0px"
	 viewBox="0 0 800 800" style="enable-background:new 0 0 800 800;" xml:space="preserve">
<style type="text/css">
	.st0{fill:#231F1F;}
</style>
<g>
	<path class="st0" d="M391.88,596.38c0,20.24,0.01,39.52-0.01,58.81c-0.01,8.47-1.92,10.41-10.46,10.41
		c-84.21,0.02-168.43,0.02-252.64,0c-9.01,0-10.61-1.67-10.61-10.76c-0.01-18.71-0.34-37.44,0.08-56.14
		c0.54-23.8,12.02-41.03,33.51-51.03c15.72-7.32,31.82-13.82,47.85-20.46c3.27-1.35,4.73-2.9,4.57-6.63
		c-0.32-7.24,0.14-14.52-0.25-21.76c-0.11-1.98-1.62-4.59-3.29-5.67c-31.19-20.21-47.59-48.67-48.18-85.93
		c-0.07-4.2-0.98-6.63-4.96-8.93c-20.4-11.82-19.18-41.72-0.92-49.99c1.39-0.63,2.4-3.53,2.48-5.41
		c0.54-13.34-0.04-26.78,1.28-40.03c4.28-42.96,41.68-80.92,84.46-86.88c27.32-3.8,52.31,1.75,75,17.49
		c0.74,0.52,1.54,0.96,3.21,1.99c0-4.87,0-8.97,0-13.06c0-12.03-0.13-24.06,0.04-36.09c0.25-16.85,13.04-29.64,29.9-29.81
		c16.21-0.17,32.42-0.04,49.58-0.04c0-4.04-0.05-7.77,0.01-11.48c0.12-7.59,1.97-9.54,9.55-9.55c33.23-0.05,66.45-0.02,99.68-0.02
		c33.8,0,67.6-0.01,101.4,0.01c9.03,0.01,10.74,1.73,10.79,10.65c0.02,3.22,0,6.44,0,10.39c12.2,0,23.99-0.13,35.76,0.07
		c3.96,0.07,8.07,0.43,11.83,1.58c11.79,3.63,19.87,14.62,20.39,27.02c0.08,1.91,0.04,3.82,0.04,5.73c0,123.74,0,247.49,0,371.23
		c0,22.55-11.69,34.3-34.12,34.3c-82.88,0-165.76,0-248.63,0C396.99,596.38,394.75,596.38,391.88,596.38z M392.54,170.2
		c-16.3,0-31.92-0.04-47.53,0.01c-11.98,0.04-18.21,6.36-18.24,18.5c-0.05,18.33-0.13,36.66,0.12,54.99
		c0.04,2.74,1.19,5.95,2.88,8.11c10.81,13.76,18.77,28.93,21.14,46.3c1.59,11.66,1.81,23.56,1.89,35.36
		c0.05,7.55,0.55,12.82,8.54,17.72c16.51,10.12,13.29,37.02-4.84,47.4c-3.54,2.02-4.56,4.12-4.52,7.97
		c0.28,24.22-7.53,45.63-22.67,64.5c-1.41,1.75-2.41,4.38-2.44,6.61c-0.2,17.37,0.01,34.75-0.21,52.12
		c-0.04,3.52,1.33,4.96,4.31,6.17c8.83,3.58,17.55,7.42,26.31,11.19c13.78,5.93,24,15.74,29.59,29.56c2.12,5.25,4.85,6.02,9.7,6.01
		c83.44-0.11,166.87-0.08,250.31-0.08c15.97,0,21.37-5.34,21.37-21.16c0-123.34,0-246.68,0-370.02c0-2.1,0.09-4.21-0.1-6.3
		c-0.65-7.43-5.84-14.11-13.14-14.48c-13.46-0.68-26.99-0.19-41.03-0.19c0,2.62,0.01,4.87,0,7.13c-0.06,9.22-1.76,10.89-11.14,10.89
		c-29.4,0-58.81,0-88.21,0c-37.23,0-74.46,0.01-111.69,0c-8.51,0-10.31-1.84-10.38-10.47C392.52,175.6,392.54,173.17,392.54,170.2z
		 M132.06,651.49c82.24,0,163.84,0,246.07,0c0-2.22,0-4.08,0-5.93c0-15.27,0.23-30.54-0.06-45.8c-0.35-18.77-9.19-32.34-26.39-39.98
		c-16.54-7.35-33.21-14.4-49.95-21.27c-2.5-1.03-6.01-1.19-8.55-0.3c-25.67,8.92-51.2,8.83-76.82-0.18
		c-2.09-0.73-4.95-0.8-6.95,0.03c-17.77,7.37-35.56,14.74-53.08,22.67c-14.12,6.39-22.91,18.01-23.96,33.19
		C131.06,612.88,132.06,631.99,132.06,651.49z M183.88,327c-0.36,2.11-0.65,3.21-0.73,4.32c-0.67,9.9-1.26,19.81-1.95,29.7
		c-0.57,8.29-6.43,11.7-13.96,8.12c-3.44-1.64-6.84-3.37-10.15-5.27c-5.77-3.31-9.08-1.77-10.39,5
		c-1.73,8.94,3.05,16.96,12.46,19.67c5.22,1.5,7.09,4.52,6.96,9.55c-0.1,3.81-0.15,7.64,0.05,11.45
		c1.87,35.18,18.49,61.16,50.42,75.74c32.2,14.71,63.16,10.2,90.61-12.06c22.73-18.44,32.15-43.29,31.16-72.36
		c-0.32-9.5-0.05-9.51,8.59-12.83c8.2-3.16,12.64-11.41,10.66-19.82c-1.23-5.23-5.39-8.48-10.3-7.69
		c-17.46,2.81-34.97,2.87-52.5,0.98c-30.74-3.32-59.14-12.8-83.69-32.27c-1.27-1.01-2.94-2.09-4.45-2.14
		C199.08,326.89,191.48,327,183.88,327z M338.41,347.93c0-14.55,1.11-28.18-0.21-41.58c-4.04-41.27-38.13-74.18-79.24-77.61
		c-42.2-3.52-80.99,22.98-92.56,63.14c-5.45,18.93-2.99,38.31-3.31,57.52c-0.02,1.43,2.28,2.89,3.51,4.34
		c1.93-10.2,2.6-19.5,3.07-28.81c0.5-9.93,1.92-11.37,12.07-11.31c32.67,0.2,64.86-3.21,95.5-15.16
		c10.73-4.19,20.69-10.46,30.77-16.17c4.08-2.31,7.66-3.8,11.16,0.28c2.99,3.49,1.79,7.32-3.15,11.01
		c-1.83,1.37-3.74,2.65-5.66,3.89c-16.19,10.5-33.96,17.23-52.64,21.64c-9.2,2.17-18.5,3.9-28.96,6.07
		C263.43,346.26,300.11,351.17,338.41,347.93z M599.97,149.61c-64.78,0-128.97,0-193.29,0c0,8.57,0,16.68,0,24.74
		c64.61,0,128.82,0,193.29,0C599.97,166.01,599.97,158.06,599.97,149.61z M217.84,503.23c0,5.1-0.18,11.55,0.15,17.97
		c0.07,1.33,1.8,3.25,3.18,3.75c22.56,8.22,45.2,8.2,67.75-0.06c1.38-0.51,3.09-2.47,3.15-3.83c0.32-7,0.15-14.02,0.15-20.09
		c-12.46,2.13-24.55,5.54-36.73,5.9C243.11,507.24,230.64,504.6,217.84,503.23z M312.87,487.73c-5.32,1.65-7.34,4.51-7.01,9.77
		c0.47,7.58,0.44,15.23,0.01,22.82c-0.3,5.4,2.45,6.65,7,7.1C312.87,514.11,312.87,501.19,312.87,487.73z"/>
	<path class="st0" d="M361.05,303.76c0.24-41.95,34.22-75.47,76.23-75.19c41.51,0.28,75.15,34.35,74.99,75.96
		c-0.16,41.67-34.47,75.51-76.34,75.29C394.5,379.59,360.81,345.37,361.05,303.76z M374.8,303.87
		c-0.21,33.95,27.22,61.86,61.09,62.16c34.18,0.31,62.36-27.29,62.62-61.31c0.25-33.95-27.25-62.14-60.89-62.4
		C402.88,242.06,375.02,269.36,374.8,303.87z"/>
	<path class="st0" d="M532.53,435.65c14.3,0,28.6,0.05,42.9-0.03c4.73-0.03,8.45,1.19,9,6.52c0.45,4.32-3.12,7.21-8.99,7.22
		c-28.98,0.06-57.96,0.03-86.94,0.02c-4.7,0-8.39-1.53-8.65-6.95c-0.21-4.36,2.84-6.74,8.63-6.77
		C503.17,435.61,517.85,435.65,532.53,435.65z"/>
	<path class="st0" d="M425.3,504.3c11.63,0,147.54-0.06,159.16,0.02c6.19,0.05,9.23,2.49,8.94,7.08c-0.35,5.53-4.2,6.64-8.84,6.64
		c-23.44-0.01-171.17,0.03-194.61-0.03c-5.92-0.01-9.5-2.78-9.06-7.09c0.54-5.29,4.24-6.67,8.96-6.65
		C401.67,504.34,413.49,504.3,425.3,504.3z"/>
	<path class="st0" d="M593.5,375c-7.64,0-55.68,0.05-63.32-0.02c-6.14-0.06-9.29-2.48-9.05-7.05c0.29-5.52,4.05-6.71,8.76-6.69
		c15.46,0.05,71.34-0.03,86.8,0.04c5.66,0.03,8.87,2.6,8.53,6.91c-0.41,5.33-4.06,6.84-8.81,6.82
		C608.78,374.98,601.14,375,593.5,375z"/>
	<path class="st0" d="M566.84,245.42c7.64,0,42.51,0.05,50.14-0.02c4.66-0.04,8.12,1.7,8.21,6.67c0.09,4.95-3.3,7.04-7.93,7.06
		c-15.65,0.05-58.54,0.07-74.19-0.03c-4.29-0.03-7.55-1.93-7.59-6.73c-0.05-5.13,3.24-6.92,7.88-6.93
		C551.19,245.41,559.01,245.42,566.84,245.42z"/>
	<path class="st0" d="M560.53,302.72c7.44,0,44.17,0.05,51.61-0.02c4.62-0.04,7.91,1.65,8.4,6.57c0.41,4.14-3.06,7.11-8.48,7.14
		c-15.07,0.11-59.43,0.1-74.5,0.01c-5.55-0.03-8.97-2.78-8.67-6.95c0.38-5.3,3.92-6.85,8.75-6.79
		C545.27,302.79,552.9,302.72,560.53,302.72z"/>
	<path class="st0" d="M598.7,518.03c-5.92,0-11.83,0.08-17.75-0.02c-5.54-0.1-8.99-2.8-8.64-6.95c0.41-4.91,3.66-6.76,8.28-6.75
		c12.21,0.02,24.43,0,36.64,0.01c4.66,0.01,8.02,1.97,7.95,6.94c-0.07,4.98-3.55,6.78-8.16,6.77
		C610.91,518.03,604.8,518.03,598.7,518.03z"/>
	<path class="st0" d="M407.45,435.66c6.1,0,192.6-0.02,198.7,0.01c4.42,0.02,7.5,1.87,7.62,6.61c0.12,4.75-2.98,6.96-7.29,7.02
		c-12.57,0.16-205.56,0.15-218.13,0.01c-4.38-0.05-7.5-2.45-7.41-6.99c0.1-4.51,3.14-6.67,7.65-6.65
		C394.88,435.68,401.16,435.66,407.45,435.66z"/>
	<path class="st0" d="M511.24,518.03c-5.72,0-11.45,0.04-17.17-0.01c-4.59-0.04-8-1.87-7.99-6.92c0.01-4.71,3.2-6.71,7.57-6.74
		c11.83-0.08,23.66-0.05,35.49-0.02c4.39,0.01,7.58,1.9,7.68,6.62c0.1,5.04-3.18,7.01-7.83,7.06
		C523.07,518.07,517.16,518.03,511.24,518.03z"/>
	<path class="st0" d="M610.13,449.24c-3.05,0-6.13,0.27-9.15-0.07c-3.89-0.43-6.33-2.71-6.24-6.85c0.09-4.08,2.43-6.43,6.45-6.56
		c5.91-0.19,11.92-0.63,17.71,0.25c2.36,0.36,5.42,3.56,6.07,6.03c0.99,3.72-1.73,6.56-5.7,7.05c-3,0.37-6.09,0.07-9.14,0.07
		C610.14,449.19,610.13,449.22,610.13,449.24z"/>
	<path class="st0" d="M530.19,374.87c-3.04,0-6.12,0.31-9.11-0.08c-3.86-0.5-6.31-3.05-6.12-6.99c0.18-3.87,2.56-6.35,6.63-6.44
		c5.7-0.13,11.41-0.13,17.12,0c4.06,0.09,6.46,2.52,6.67,6.4c0.22,3.96-2.22,6.51-6.07,7.03
		C536.31,375.19,533.23,374.87,530.19,374.87z"/>
	<path class="st0" d="M459.22,435.67c4.45-0.14,8.86,0.02,9.57,5.21c0.3,2.2-1.1,6.42-2.45,6.74c-4.23,1.02-8.91,1.21-13.19,0.46
		c-1.54-0.27-3.61-4.22-3.44-6.32C450.19,436.06,454.74,435.36,459.22,435.67z"/>
	<path class="st0" d="M552.13,518.04c-6.03,0.04-9.33-2.32-9.43-6.73c-0.1-4.46,3.17-6.97,9.14-7c6-0.04,9.38,2.36,9.49,6.71
		C561.43,515.37,557.98,518,552.13,518.04z"/>
	<path class="st0" d="M616.56,302.72c5.64,0.06,8.74,2.46,8.73,6.79c0,4.44-3.48,7.04-9.3,6.95c-5.63-0.09-8.64-2.5-8.65-6.93
		C607.33,304.93,610.41,302.66,616.56,302.72z"/>
	<path class="st0" d="M537.74,245.42c5.51,0.01,8.8,2.48,8.88,6.68c0.08,4.34-3.6,7.16-9.21,7.06c-5.31-0.1-8.68-2.89-8.57-7.11
		C528.94,247.79,532.14,245.41,537.74,245.42z"/>
	<path class="st0" d="M421,319.84c14.62-14.64,28.51-28.55,42.42-42.44c1.35-1.35,2.67-3.52,4.2-3.71c2.86-0.37,6.74-0.54,8.55,1.06
		c1.51,1.34,1,5.37,0.72,8.14c-0.12,1.22-1.84,2.32-2.92,3.4c-15.11,15.13-30.23,30.26-45.37,45.37c-6.1,6.09-8.51,6.06-14.68-0.08
		c-5.41-5.39-10.79-10.82-16.21-16.2c-3.33-3.3-4.35-7.07-0.84-10.54c3.48-3.44,7.33-2.47,10.58,0.87
		C411.85,310.23,416.18,314.8,421,319.84z"/>
</g>
</svg>
