<?xml version="1.0" encoding="utf-8"?>
<!-- Generator: Adobe Illustrator 28.1.0, SVG Export Plug-In . SVG Version: 6.00 Build 0)  -->
<svg version="1.1" id="Capa_1" xmlns="http://www.w3.org/2000/svg" xmlns:xlink="http://www.w3.org/1999/xlink" x="0px" y="0px"
	 viewBox="0 0 1080 1080" style="enable-background:new 0 0 1080 1080;" xml:space="preserve">
<style type="text/css">
	.st0{fill:#FFFFFF;}
</style>
<g>
	<g>
		<path class="st0" d="M987,515.04c-3,6.52-5.35,13.45-11,18.36c-10.77,9.36-23.05,12.27-36.42,7.04
			c-13.31-5.21-20.61-15.52-22.14-29.75c-0.34-3.16-0.2-6.38-0.2-9.58c-0.01-62.76,0.07-125.52-0.04-188.27
			c-0.06-35.33-19.98-62.57-52.77-70.91c-19.34-4.92-39.36-1.73-59.06-2.4c-4.53-0.15-3.15,3.25-3.18,5.51
			c-0.12,9.59,0.12,19.18-0.1,28.76c-0.47,20.48-15.7,35.67-35.27,35.42c-19.21-0.24-33.92-15.31-34.38-35.44
			c-0.21-9.29-0.27-18.6,0.04-27.89c0.15-4.58-0.64-6.52-5.96-6.49c-49.1,0.22-98.21,0.21-147.31,0.01
			c-4.88-0.02-5.71,1.71-5.59,5.97c0.26,9.58,0.27,19.18,0.02,28.76c-0.52,20.05-15.46,35.04-34.72,35.09
			c-19.24,0.05-34.34-14.93-34.9-34.91c-0.27-9.58-0.17-19.18-0.02-28.76c0.06-3.93-0.13-6.19-5.38-6.17
			c-48.81,0.23-97.62,0.19-146.44,0.04c-4.28-0.01-5.39,1.3-5.27,5.4c0.28,9.29,0.2,18.59,0.06,27.89
			c-0.31,21.22-15.19,36.64-35.09,36.5c-19.57-0.13-34.25-15.37-34.6-36.11c-0.16-9.59,0-19.18-0.06-28.76
			c-0.01-2.14,0.88-4.98-3.02-4.83c-19.4,0.74-39.1-2.54-58.14,2.63c-31.16,8.46-50.58,33.68-52.09,66.14
			c-0.05,1.16-0.06,2.32-0.06,3.49c0,179.56-0.05,359.11,0.04,538.67c0.02,34.6,19.39,60.45,51.75,69.95
			c7.86,2.31,15.98,2.69,24.14,2.68c85.42-0.03,170.84,0.05,256.27-0.09c11.6-0.02,21.89,2.67,29.91,11.37
			c16.25,17.65,10.36,45.52-11.59,55.36c-2.33,1.04-4.67,2.06-7.01,3.09c-97.07,0-194.14,0-291.21,0
			c-41.68-3.19-73.01-24.35-97.57-56.78c-17.21-22.73-25.4-48.56-25.39-77.17c0.09-185.07,0.42-370.14-0.16-555.21
			c-0.2-63.38,48.48-112.85,92.63-128.02c23.33-8.01,47.17-8.89,71.38-8.49c18.63,0.31,17.53,1.39,17.57-17.36
			c0.01-5.81-0.28-11.63,0.26-17.42c1.88-20.23,15.32-32.75,35.47-33.17c24.33-0.5,38.42,13.04,39.09,37.62
			c0.18,6.68-0.04,13.37,0.08,20.05c0.17,9.48,0.92,10.31,10.67,10.33c36.61,0.08,73.22,0.03,109.82,0.03
			c7.26,0,14.54-0.28,21.79,0.07c7.28,0.35,9.89-2.89,9.57-9.86c-0.3-6.67-0.17-13.36-0.02-20.04
			c0.54-24.52,14.12-38.26,37.67-38.19c23.01,0.07,36.56,13.86,37.12,37.86c0.16,6.68-0.04,13.37,0.06,20.05
			c0.15,9.27,0.82,10.04,9.91,10.09c19.18,0.1,38.35,0.03,57.53,0.03c24.99,0,49.97,0.05,74.96-0.02
			c10.35-0.03,10.97-0.69,11.12-10.73c0.11-7.26-0.23-14.53,0.15-21.79c1.16-22.4,15.2-35.58,37.66-35.49
			c21.93,0.08,35.76,13.24,36.94,35.31c0.43,8.12,0.22,16.27,0.13,24.4c-0.07,5.94,2.59,8.36,8.41,8.32
			c10.46-0.07,20.92-0.12,31.38,0.01c59.24,0.72,102.28,28.15,130.57,79.59c7.97,14.49,10.42,30.55,11.94,46.76
			C987,367.4,987,441.22,987,515.04z"/>
		<path class="st0" d="M346.99,466.26c-0.02,19.08-15.78,34.81-34.87,34.78c-19.08-0.02-34.81-15.78-34.78-34.87
			c0.02-19.08,15.78-34.81,34.87-34.78C331.29,431.41,347.02,447.17,346.99,466.26z"/>
		<path class="st0" d="M463.95,501.04c-19.08,0.04-34.86-15.67-34.9-34.75c-0.04-19.08,15.67-34.86,34.75-34.9
			c19.08-0.04,34.86,15.67,34.9,34.75C498.74,485.22,483.03,501,463.95,501.04z"/>
		<path class="st0" d="M615.36,431.39c19.08-0.12,34.92,15.53,35.04,34.61c0.12,19.08-15.53,34.92-34.61,35.04
			c-19.08,0.12-34.92-15.53-35.04-34.61C580.64,447.35,596.28,431.51,615.36,431.39z"/>
		<path class="st0" d="M802.11,466.14c0.04,19.08-15.67,34.86-34.75,34.9c-19.08,0.04-34.86-15.67-34.9-34.75
			c-0.04-19.08,15.67-34.86,34.75-34.9C786.3,431.35,802.07,447.06,802.11,466.14z"/>
		<path class="st0" d="M346.99,618.12c-0.11,19.08-15.94,34.73-35.03,34.62c-19.09-0.11-34.73-15.94-34.63-35.03
			c0.11-19.09,15.94-34.73,35.03-34.62C331.45,583.2,347.1,599.03,346.99,618.12z"/>
		<path class="st0" d="M464.24,652.74c-19.09,0.2-34.99-15.38-35.19-34.46c-0.2-19.09,15.38-34.99,34.46-35.19
			c19.09-0.2,34.99,15.38,35.19,34.46C498.9,636.64,483.32,652.55,464.24,652.74z"/>
		<path class="st0" d="M346.99,769.75c-0.07,19.08-15.88,34.77-34.95,34.7c-19.08-0.07-34.77-15.87-34.7-34.95
			c0.07-19.08,15.87-34.77,34.95-34.7C331.38,734.87,347.07,750.67,346.99,769.75z"/>
		<path class="st0" d="M498.7,769.84c-0.12,19.08-15.96,34.73-35.04,34.61c-19.08-0.12-34.73-15.96-34.61-35.04
			c0.12-19.08,15.96-34.73,35.04-34.61C483.17,734.92,498.82,750.76,498.7,769.84z"/>
		<path class="st0" d="M985.17,754.88c-2.83-20.5-7.89-40.41-16.82-59.13c-32.54-68.22-85.73-110.29-160.6-121.93
			c-71.43-11.1-133.59,10.36-183.58,62.34c-48.53,50.46-66.23,111.46-55.98,180.93c11.28,76.42,74.48,147.47,149.39,167.43
			c11.3,3.01,23.23,3.29,34,8.29c2.91,0,5.81,0,8.72,0c1.16-1.1,2.33-1.1,3.49,0c8.14,0,16.27,0,24.41,0c1.16-1.1,2.33-1.1,3.49,0
			c1.74,0,3.49,0,5.23,0c7.31-1.84,14.94-0.91,22.26-2.5c59.56-12.95,105.56-45.44,138.04-96.84
			c16.82-26.62,26.95-55.73,29.77-87.23c0-2.91,0-5.81,0-8.72c-2.36-1.16-2.01-2.33,0-3.49c0-8.14,0-16.27,0-24.41
			c-2.01-1.16-2.36-2.32,0-3.49c0-2.33,0-4.65,0-6.97C984.59,758.51,985.39,756.43,985.17,754.88z M775.56,923.05
			c-77.45-0.29-140.64-63.59-140.77-141.01c-0.14-77.71,63.49-141.43,141.23-141.43c77.74,0.01,141.36,63.73,141.21,141.44
			C917.07,859.82,853.25,923.34,775.56,923.05z"/>
		<path class="st0" d="M741.15,745.78c0-11.62-0.2-23.25,0.04-34.87c0.43-20.47,15.71-35.66,35.28-35.41
			c19.21,0.25,33.88,15.32,34.36,35.47c0.19,7.84,0.04,15.69,0.04,23.54c0,12.37,0,12.35,11.99,12.45
			c4.06,0.03,8.07,0.08,12.09,1.16c16.7,4.5,27.6,19.38,26.34,36.27c-1.28,17.14-14.86,31.31-32.25,31.99
			c-18.57,0.72-37.21,0.78-55.77-0.03c-18.05-0.79-31.47-15.53-32.03-33.96c-0.37-12.19-0.07-24.41-0.07-36.61
			C741.17,745.78,741.16,745.78,741.15,745.78z"/>
	</g>
</g>
</svg>
