<?xml version="1.0" encoding="utf-8"?>
<!-- Generator: Adobe Illustrator 28.1.0, SVG Export Plug-In . SVG Version: 6.00 Build 0)  -->
<svg version="1.1" id="Capa_1" xmlns="http://www.w3.org/2000/svg" xmlns:xlink="http://www.w3.org/1999/xlink" x="0px" y="0px"
	 viewBox="0 0 800 800" style="enable-background:new 0 0 800 800;" xml:space="preserve">
<style type="text/css">
	.st0{fill:#231F1F;}
</style>
<path class="st0" d="M730,486.95c-3.88,10.25-9.27,19.11-19.93,23.89c-1.39,0.63-1.94,4.37-1.94,6.68
	c-0.11,48.13-0.04,96.25-0.1,144.38c-0.02,17.61-8.93,30.18-24.51,34.31c-4.08,1.08-8.48,1.27-12.74,1.27
	c-180.44,0.06-360.88,0.06-541.32,0.04c-24.36,0-37.43-13.11-37.44-37.38c-0.02-47.27-0.06-94.53,0.08-141.8
	c0.01-4.44-0.73-7.14-5.2-9.54c-11.36-6.09-16.68-16.37-16.79-29.15c-0.15-18.69-0.04-37.38-0.05-56.08
	c0-61.88-0.03-123.75,0.02-185.63c0.02-17.12,9.08-29.99,24.14-33.95c4.5-1.18,9.34-1.45,14.02-1.46
	c43.18-0.11,86.35-0.06,129.53-0.06c2.52,0,5.05,0,8.31,0c0-13.59-0.64-26.48,0.22-39.27c0.62-9.27,1.59-19.14,5.29-27.46
	c8.82-19.82,25.02-31.48,46.91-31.66c67.44-0.56,134.9-0.91,202.33,0.04c31.82,0.45,52.6,24.24,53.14,57.03
	c0.18,11.17,0.03,22.34,0.04,33.52c0,2.32,0,4.65,0,7.81c3.19,0,5.69,0,8.2,0c41.67,0,83.36,0.52,125.02-0.22
	c20.82-0.37,35.97,6.02,42.81,26.86C730,315.05,730,401,730,486.95z M443.9,525.96c2.84-0.18,4.95-0.17,7.03-0.46
	c29.12-4,58.24-8.03,87.36-12.06c51.44-7.11,102.86-14.28,154.31-21.28c12.76-1.74,15.44-4.42,15.44-17.24
	c0-77.55,0-155.09,0-232.64c0-14.96-2.76-17.76-17.57-17.76c-80.54,0-161.08,0-241.62,0c-113.4,0-226.8,0-340.2,0.01
	c-13.51,0-16.65,3.19-16.65,16.75c0,78.41-0.01,156.81,0.01,235.22c0,10.42,3.15,14.05,13.15,15.43
	c74.61,10.29,149.21,20.59,223.82,30.85c8.82,1.21,17.66,2.25,27.18,3.45c0-6.07-0.15-11.2,0.03-16.32
	c0.6-17.76,13.75-31.29,31.42-32.06c8.14-0.35,16.33-0.35,24.47-0.03c18.06,0.72,31.24,14.24,31.8,32.36
	C444.03,515.29,443.9,520.4,443.9,525.96z M113.96,515.26c0,2.87,0,4.98,0,7.09c0,45.76-0.01,91.51,0,137.27
	c0,12.58,3.34,15.88,16.13,15.88c179.98,0.01,359.97,0.01,539.95,0c12.71,0,16.02-3.32,16.02-15.99c0.01-45.76,0-91.51,0-137.27
	c0-2.11,0-4.22,0-6.98c-81.07,11.19-161.48,22.29-242.15,33.43c0,9.62,0.13,18.42-0.03,27.2c-0.34,19.47-13.95,33.17-33.31,33.59
	c-6.01,0.13-12.03,0.05-18.04,0.03c-23.1-0.07-36.37-13.28-36.45-36.3c-0.03-8.08,0-16.16,0-24.52
	C275.22,537.52,195.12,526.46,113.96,515.26z M290.13,202.2c0-14.4-0.12-28.1,0.04-41.8c0.1-8.75,3.95-12.71,12.6-12.72
	c64.85-0.07,129.69-0.07,194.54,0c8.63,0.01,12.44,3.98,12.57,12.76c0.16,11.59,0.03,23.19,0.06,34.79c0.01,2.25,0.2,4.51,0.31,6.79
	c7.55,0,14.3,0,21.17,0c0-16.71,0.01-32.98-0.03-49.24c0-0.83-0.36-1.67-0.58-2.49c-4.3-15.8-16.57-24.61-34.84-24.63
	c-56.69-0.06-113.37-0.03-170.06-0.01c-9.02,0-18.05-0.2-27.05,0.26c-16.56,0.85-29.64,13.55-30.38,30.13
	c-0.65,14.57-0.27,29.19-0.29,43.79c0,0.77,0.49,1.54,0.78,2.38C275.83,202.2,282.44,202.2,290.13,202.2z M312.4,202
	c58.8,0,116.89,0,175.15,0c0-10.89,0-21.3,0-31.8c-58.63,0-116.89,0-175.15,0C312.4,181,312.4,191.27,312.4,202z M421.96,543.02
	c0-10.52,0.15-21.04-0.05-31.56c-0.14-7.41-4.29-11.49-11.67-11.71c-6.86-0.2-13.74-0.21-20.6,0.01
	c-7.31,0.23-11.45,4.39-11.5,11.87c-0.15,21.25-0.14,42.51,0,63.76c0.05,7.79,4.25,11.88,12,12.11c6,0.18,12.02,0.09,18.03,0.03
	c9.8-0.09,13.73-3.92,13.8-13.6C422.03,563.63,421.97,553.32,421.96,543.02z"/>
</svg>
