<?xml version="1.0" encoding="utf-8"?>
<!-- Generator: Adobe Illustrator 28.1.0, SVG Export Plug-In . SVG Version: 6.00 Build 0)  -->
<svg version="1.1" id="Capa_1" xmlns="http://www.w3.org/2000/svg" xmlns:xlink="http://www.w3.org/1999/xlink" x="0px" y="0px"
	 viewBox="0 0 800 800" style="enable-background:new 0 0 800 800;" xml:space="preserve">
<style type="text/css">
	.st0{fill:#231F1F;}
</style>
<g>
	<path class="st0" d="M385.73,119.5c9.51,0,19.03,0,28.54,0c1.22,0.31,2.43,0.79,3.67,0.89c26.93,2.23,52.27,9.85,76.37,22.02
		c77.8,39.3,123.25,128.2,109.08,214.1c-1.89,11.44-4.83,22.7-7.32,34.23c6.28,0,12.58,0,18.78,0c4.46-14.9,9.21-18.41,24.55-18.42
		c5.49,0,11,0.34,16.46-0.07c11.58-0.88,20.33,2.9,25.14,13.98c0,49.76,0,99.52,0,149.28c-3.21,8.83-8.92,14.62-18.81,14.81
		c-9.31,0.18-18.64,0.27-27.95-0.02c-9.79-0.3-15.82-5.48-18.38-15c-0.27-1.01-0.64-1.99-1.27-3.91
		c-11.34,1.94-22.5,3.86-33.96,5.82c3.52,11.95,2.21,21.93-4.14,31.09c-6.5,9.35-16.05,13.22-26.78,14.18
		c-2.42,20.15-10.43,28.11-33.09,33.31c-2.12,19.79-13.34,30.73-32.93,32.99c-2.35,13.7-5.72,20.67-13.63,26.1
		c-3.97,2.72-8.62,4.45-12.97,6.63c-4.39,0-8.78,0-13.17,0c-13.54-3.83-21.77-15.24-32.85-23.47
		c-7.39,10.76-15.42,20.37-28.62,23.47c-3.66,0-7.32,0-10.98,0c-8.3-2.6-16.26-5.98-21.01-13.72c-2.91-4.74-4.82-10.1-7.28-15.4
		c-18.84,0.75-31.63-9.35-36.13-28.91c-20.26,0.37-32.39-9.74-36.77-29.39c-13.12,0.87-23.62-3.53-30.83-14.37
		c-7.18-10.8-6.92-22.26-1.68-34.13c-17.08-7.11-34.46-11.45-52.41-13.38c-5.86,15.85-9.31,18.2-26.4,18.2
		c-4.93,0-9.89-0.34-14.79,0.07c-11.56,0.95-20.29-2.85-25.16-13.86c0-50.13,0-100.25,0-150.38c4.79-11.09,13.54-14.8,25.11-13.99
		c6.55,0.46,13.16,0.02,19.73,0.1c11.25,0.13,17.09,4.65,20.41,15.38c0.39,1.27,1.76,3.14,2.75,3.19
		c5.72,0.31,11.47,0.15,17.56,0.15c-0.56-2.15-0.82-3.39-1.2-4.59c-11.48-36.83-13.35-74.21-2.94-111.32
		c22.9-81.65,76.22-132.16,158.89-151.39C367.98,121.74,376.92,120.89,385.73,119.5z M394.33,596.24c1.32,0.25,2.71,0.52,4.11,0.78
		c16.2,2.95,29.48,18.87,26.01,34.5c-2.28,10.26,1.13,15.42,8.43,20.48c2.69,1.86,4.9,4.38,7.41,6.51
		c6.47,5.51,14.22,5.58,19.83,0.24c5.42-5.15,5.72-12.61,0.77-19.32c-4-5.43-4.17-10.06-0.51-13.79c3.68-3.74,8.21-3.22,13.87,0.15
		c3.38,2.01,7.86,3.82,11.54,3.34c10.89-1.41,15-13.6,8.21-22.73c-4.07-5.47-4.37-10.05-0.9-13.78c3.81-4.09,8.34-3.89,14.58,0.66
		c6.18,4.5,13.97,4.06,18.99-1.07c4.95-5.06,5.28-12.42,0.85-18.53c-4.36-6.01-4.68-10.4-1.04-14.2c3.89-4.07,8.13-3.83,14.58,0.81
		c0.15,0.11,0.28,0.23,0.43,0.33c6.33,4.36,14.54,3.26,19.18-2.57c4.82-6.06,4.18-13.79-1.65-19.11c-2.16-1.97-4.36-3.91-6.67-5.7
		c-35.56-27.53-71.11-55.06-106.72-82.52c-8.64-6.66-17.47-13.08-26.26-19.66c-16.03,14.98-31.65,29.59-47.27,44.2
		c-7.49,7-16.35,10.46-26.55,9.26c-13.51-1.6-23.11-8.89-27.82-21.7c-4.72-12.85-1.9-24.54,7.38-34.48
		c12.85-13.77,25.91-27.34,38.87-41.01c3.99-4.21,7.94-8.45,12.05-12.83c-7.62-3.12-16.18-2.35-25.24,2.19
		c-18.78,9.41-37.58,18.78-56.25,28.39c-6.52,3.36-13.22,4.89-20.52,4.86c-27.43-0.13-54.86-0.05-82.29-0.05c-2.14,0-4.29,0-6.64,0
		c0,34.84,0,69.08,0,101.65c22.1,5.77,43.38,11.32,65.56,17.1c3.48-4.36,7.74-10.07,12.39-15.43c15.81-18.19,44.74-13.85,54.58,8.1
		c0.58,1.3,1.14,2.63,1.8,4.16c11.48-3.77,21.95-2.02,31.22,5.25c9.29,7.29,12.99,17.26,12.33,28.78
		C382.87,562.83,393.86,575.12,394.33,596.24z M615.1,409.9c-2.75,0-4.93,0-7.1,0c-32.19,0-64.37-0.06-96.56,0.04
		c-7.29,0.02-13.99-1.42-20.53-4.79c-18.5-9.54-37.17-18.75-55.79-28.05c-15.76-7.87-30.36-5.42-42.39,7.21
		c-17.66,18.53-35.26,37.13-52.86,55.72c-6.59,6.97-7.06,15.5-1.29,21.56c6.06,6.35,14.28,6.03,21.82-0.95
		c15.02-13.92,29.99-27.9,45.03-41.8c8.5-7.86,17.25-8.69,26.23-1.86c41.32,31.43,82.79,62.67,123.55,94.81
		c8.93,7.04,16.08,10.49,27.51,6.45c10.13-3.58,21.36-4.03,32.38-5.9C615.1,478.62,615.1,444.68,615.1,409.9z M390.23,315.82
		c0-27.99,0-55.67,0-83.45c-1.04-0.21-1.73-0.48-2.43-0.48c-21.59-0.03-43.17,0.02-64.76-0.11c-3.1-0.02-4.11,1.38-4.65,4.07
		c-3.06,15.4-6.7,30.7-9.18,46.18c-1.77,11.07-2.02,22.39-2.97,33.79C334.89,315.82,362.43,315.82,390.23,315.82z M493.4,315.85
		c-0.76-27.82-4.69-54.48-11.91-80.68c-0.99-3.61-3.18-3.35-5.75-3.35c-20.31,0.01-40.61,0-60.92,0.02c-1.6,0-3.21,0.18-5.05,0.3
		c0,28.07,0,55.76,0,83.72C437.67,315.85,465.2,315.85,493.4,315.85z M286.16,315.85c3.95-28.34,7.82-56.01,11.72-84
		c-18.77,0-38.12-0.09-57.47,0.17c-1.56,0.02-3.82,2.17-4.5,3.84c-5.91,14.49-12.41,28.83-16.96,43.75
		c-3.51,11.5-4.49,23.78-6.68,36.24C238.29,315.85,262.72,315.85,286.16,315.85z M502.14,231.83c3.91,28.16,7.77,55.87,11.67,83.94
		c23.41,0,47.96,0,72.64,0c0.08-1.05,0.22-1.76,0.17-2.46c-1.73-27.97-9.52-54.18-23.23-78.58c-0.87-1.54-3.73-2.71-5.7-2.77
		c-10.04-0.28-20.1-0.13-30.15-0.13C518.8,231.83,510.07,231.83,502.14,231.83z M512.87,335.03c-1.86,18.77-3.67,37.04-5.5,55.44
		c0.05,0.03,0.36,0.37,0.67,0.37c21.56,0.09,43.11,0.22,64.66,0.07c1.32-0.01,3.39-2.06,3.81-3.54c2.81-9.81,5.65-19.64,7.72-29.61
		c1.53-7.35,1.9-14.95,2.82-22.74C561.57,335.03,537.31,335.03,512.87,335.03z M213.89,335.18c-0.25,0.67-0.49,1-0.48,1.33
		c0.58,17.85,4.34,35.08,10.46,51.78c0.52,1.42,3.6,2.67,5.5,2.69c15.34,0.22,30.7,0.54,46.01-0.11c5.17-0.22,10.29-3.02,15.27-5.04
		c0.83-0.34,1.31-2.73,1.18-4.1c-0.89-9.44-2.06-18.86-2.97-28.3c-0.59-6.09-0.88-12.21-1.3-18.25
		C262.56,335.18,238.17,335.18,213.89,335.18z M137.99,391.46c0,46.74,0,93.12,0,139.74c9.31,0,18.33,0,27.59,0
		c0-46.74,0-93.08,0-139.74C156.19,391.46,147.15,391.46,137.99,391.46z M661.96,531.32c0-46.96,0-93.31,0-139.78
		c-9.37,0-18.41,0-27.5,0c0,46.79,0,93.15,0,139.78C643.76,531.32,652.66,531.32,661.96,531.32z M390.31,139.74
		c-24.73,4.48-58.68,43.81-63.53,72.94c21.12,0,42.23,0,63.53,0C390.31,188.22,390.31,164.16,390.31,139.74z M474.13,212.85
		c-2.23-5.19-4-9.74-6.1-14.14c-9.36-19.63-20.48-38.03-38.92-50.56c-5.69-3.87-12.33-6.34-19.32-9.84c0,25.9,0,50.07,0,74.54
		C431.11,212.85,452.04,212.85,474.13,212.85z M409.88,354.48c15.42-3.08,28.43,2.85,41.33,9.65c12.23,6.45,24.7,12.46,38.27,19.27
		c1.51-16.58,2.95-32.35,4.39-48.19c-28.95,0-56.44,0-84.47,0c0,5.27-0.03,10.18,0.02,15.08
		C409.44,351.52,409.69,352.75,409.88,354.48z M548.57,213.07c-13.77-24.58-69.77-64.32-90.33-64.32
		c15.71,18.39,27.6,38.75,35.41,61.46c0.43,1.25,2.52,2.72,3.85,2.74C514.3,213.13,531.09,213.07,548.57,213.07z M341.95,147.51
		c-37.21,12.77-67.13,34.04-91.37,65.56c17.49,0,33.56-0.12,49.61,0.09c3.87,0.05,5.45-1.2,7.05-4.83
		c5.34-12.16,10.84-24.32,17.32-35.9C329.31,163.93,335.69,156.34,341.95,147.51z M309.61,376.44
		c11.82-5.94,22.39-11.27,32.98-16.56c14.16-7.07,28.66-7.79,43.5-2.29c1.26,0.47,2.59,0.76,4.16,1.21c0-8.14,0-15.73,0-23.55
		c-27.99,0-55.63,0-84.07,0C307.32,348.95,308.42,362.18,309.61,376.44z M305.08,604.78c1.78-0.95,5.79-1.88,7.9-4.39
		c9.97-11.89,19.67-24.03,28.94-36.48c4.31-5.79,2.38-13.73-3.2-18.14c-5.43-4.28-13.92-4.21-18.43,1.18
		c-9.95,11.91-19.5,24.17-28.9,36.52c-3.25,4.27-2.89,9.3-0.26,13.99C293.77,602.18,297.96,604.37,305.08,604.78z M267.04,576.36
		c3.13-1.64,7.11-2.55,9.25-5.05c8.18-9.55,16.05-19.4,23.45-29.57c4.18-5.75,2.24-13.78-3.28-18.15
		c-5.44-4.3-13.81-4.22-18.41,1.18c-8.15,9.58-16.21,19.32-23.34,29.66C248.47,563.47,255.67,575.49,267.04,576.36z M375.57,593.76
		c-0.67-6.33-4.07-11.37-9.62-13.56c-5.64-2.22-11.7-0.83-15.83,4.18c-6.97,8.47-13.78,17.07-20.47,25.76
		c-5.37,6.98-4.51,15.74,1.71,20.53c6.25,4.81,14.85,3.54,20.38-3.26c6.69-8.23,13.31-16.52,19.67-25
		C373.3,599.91,374.21,596.67,375.57,593.76z M377.16,663.71c3.26-1.77,7.28-2.85,9.62-5.45c6.19-6.9,11.95-14.24,17.3-21.82
		c4.15-5.87,2.47-13.77-2.99-18.17c-5.3-4.27-13.8-4.23-18.43,0.98c-6.28,7.07-12.38,14.4-17.64,22.24
		C358.95,650.55,365.83,662.55,377.16,663.71z"/>
</g>
</svg>
