<?xml version="1.0" encoding="utf-8"?>
<!-- Generator: Adobe Illustrator 28.1.0, SVG Export Plug-In . SVG Version: 6.00 Build 0)  -->
<svg version="1.1" id="Capa_1" xmlns="http://www.w3.org/2000/svg" xmlns:xlink="http://www.w3.org/1999/xlink" x="0px" y="0px"
	 viewBox="0 0 1080 1080" style="enable-background:new 0 0 1080 1080;" xml:space="preserve">
<style type="text/css">
	.st0{fill:#FFFFFF;}
</style>
<g>
	<path class="st0" d="M525.19,201c-213.12-0.61-385.95,169.84-387.6,385.59c-1.52,212.04,172.05,386.19,386.08,387.39
		c212.03,1.18,385.82-170.82,386.89-385.46C911.62,375.93,741.37,201.62,525.19,201z M523.79,903.58
		C349.52,903.2,207.83,761.21,208,587.12c0.17-174.18,142.09-315.98,316.24-315.97c174.21,0.01,316.07,141.78,316.22,316.02
		C840.61,761.6,698.13,903.95,523.79,903.58z"/>
	<path class="st0" d="M489.29,481.77c0-35.39-0.18-70.77,0.08-106.16c0.11-14.91,7.81-25.66,21.36-31.32
		c13.2-5.52,25.9-3.38,36.82,6.12c8.62,7.49,11.78,17.32,11.73,28.65c-0.16,43.34-0.07,86.68-0.06,130.03
		c0,18.93,0.15,37.86-0.1,56.78c-0.06,4.78,1.36,8.15,4.74,11.5c29.98,29.76,59.95,59.53,89.62,89.61
		c19.79,20.07,12.4,51.66-13.74,59.37c-12.77,3.76-24.72,1.23-34.25-8.22c-35.64-35.35-71.07-70.92-106.51-106.47
		c-7.39-7.41-9.86-16.65-9.81-27.01c0.18-34.29,0.07-68.58,0.07-102.87C489.26,481.77,489.28,481.77,489.29,481.77z"/>
</g>
</svg>
