<?xml version="1.0" encoding="utf-8"?>
<!-- Generator: Adobe Illustrator 28.1.0, SVG Export Plug-In . SVG Version: 6.00 Build 0)  -->
<svg version="1.1" id="Capa_1" xmlns="http://www.w3.org/2000/svg" xmlns:xlink="http://www.w3.org/1999/xlink" x="0px" y="0px"
	 viewBox="0 0 800 800" style="enable-background:new 0 0 800 800;" xml:space="preserve">
<style type="text/css">
	.st0{fill:#231F1F;}
</style>
<g>
	<path class="st0" d="M484.28,646c17.07,0,33.61,0,50.16,0c1.76,0,3.56-0.15,5.27,0.14c4.38,0.75,6.83,3.39,6.97,7.94
		c0.15,4.75-2.14,7.72-6.77,8.66c-1.7,0.34-3.51,0.17-5.27,0.17c-91.61,0.01-183.21,0.01-274.82,0.01c-0.7,0-1.41,0.01-2.11,0
		c-6.82-0.09-10.29-3.02-10.2-8.61c0.09-5.39,3.45-8.25,9.98-8.28c10.75-0.05,21.49-0.02,32.24-0.02c4.56,0,9.11,0,14.32,0
		c-2.15-11.2-4.17-21.87-6.25-32.53c-2.26-11.57-4.49-23.15-6.91-34.68c-0.86-4.11-1.93-8.23-3.45-12.13
		c-9.08-23.27-18.59-46.37-27.33-69.76c-2.47-6.61-3.79-13.97-4-21.03c-0.55-18.31-0.21-36.64-0.18-54.97
		c0.03-17.33,7.23-25.68,24.28-28.78c1.61-0.29,3.28-2.31,4.23-3.94c22.94-39.39,45.78-78.84,68.64-118.28
		c24.27-41.87,48.54-83.75,72.82-125.62c3.43-5.92,7.28-7.45,11.88-4.75c4.93,2.9,5.87,7.88,2.54,13.62
		c-2.98,5.13-5.99,10.25-9.06,15.51c15.03,2.68,29.71,4.6,44.04,7.99c25.96,6.14,48.03,19.47,64.73,40.3
		c20.84,25.98,47.67,39.75,80.41,43.3c11.01,1.19,21.94,3.19,32.87,5.03c8.14,1.37,10.89,7.04,6.72,14.31
		c-22.21,38.8-44.5,77.55-66.98,116.18c-1.17,2-4.61,4.28-6.61,3.96c-26.67-4.2-54.2-4.76-79.17-16.71
		c-8.21-3.93-15.93-8.93-23.65-13.8c-5.05-3.19-5.85-7.67-2.91-12.16c2.81-4.3,7.54-5.14,12.44-1.57
		c12.85,9.34,26.83,16.31,42.41,19.33c14.33,2.78,28.83,4.69,43.29,6.69c1.56,0.22,4.2-0.98,4.97-2.31
		c18.67-32.1,37.15-64.31,55.64-96.51c0.25-0.43,0.26-1,0.54-2.13c-9.92-1.53-19.72-3.06-29.52-4.55
		c-31.3-4.77-58.34-18.07-78.36-42.77c-21.22-26.18-48.13-40.37-81.25-43.9c-8.57-0.91-17.05-2.62-25.61-3.62
		c-1.61-0.19-4.26,0.76-4.99,2.02c-18.74,32.26-37.29,64.64-55.86,97c-0.25,0.43-0.3,0.97-0.52,1.73
		c12.77,2.11,25.51,3.83,38.07,6.37c28.61,5.79,52.37,19.99,71.19,42.36c4.45,5.29,4.63,10.28,0.62,13.47
		c-4.5,3.59-9.15,2.68-13.65-2.7c-18.65-22.29-42.73-34.41-71.31-38.2c-10.47-1.39-20.89-3.14-31.36-4.41
		c-1.59-0.19-4.21,0.82-4.95,2.1c-18.13,30.98-36.07,62.08-54.28,93.56c7.61,6.67,8.67,15.48,8.49,24.94
		c-0.26,14.26-2.04,28.93,0.62,42.69c2.65,13.74,9.97,26.58,15.26,39.8c4.57,11.43,9.29,22.81,13.69,34.3
		c1.14,2.98,2.72,3.87,5.81,3.84c15.85-0.15,31.71-0.16,47.56,0.01c3.18,0.03,4.59-1.07,5.73-3.94
		c9.34-23.54,18.87-47.01,28.22-70.54c0.88-2.22,1.33-4.75,1.35-7.15c0.12-14.62,0.01-29.25,0.07-43.87
		c0.06-15.14,11.1-26.86,25.29-26.99c13.52-0.12,24.35,11.41,24.46,26.45c0.14,19.91,0.32,39.83-0.15,59.72
		c-0.15,6.19-1.64,12.58-3.76,18.43c-5.27,14.54-10.78,29.04-17.07,43.17c-10.17,22.85-16.28,46.73-20.35,71.28
		c-1.9,11.44-4.36,22.78-6.64,34.53c13.56,0,26.7,0,40.49,0c-4.5-17.75-5.72-36.13-13.5-52.93c-1.7-3.66-3.06-7.49-4.49-11.27
		c-2.08-5.51-0.23-10.61,4.4-12.38c4.48-1.72,8.97,0.63,11.42,5.85c8.04,17.17,13.26,35.15,15.92,53.91
		C481.86,634.43,483.13,639.93,484.28,646z M409.86,645.79c3.02-15.62,5.81-30.84,8.94-45.99c3.23-15.63,5.2-31.5,11.69-46.43
		c8.76-20.15,16.62-40.7,24.72-61.14c1.54-3.89,3.35-8.04,3.42-12.1c0.36-20.96,0.36-41.93-0.01-62.89
		c-0.04-2.48-2.66-6.07-4.98-7.05c-2.38-1.01-6.54-0.37-8.63,1.24c-1.91,1.46-2.87,5.16-2.92,7.9c-0.26,15.5-0.05,31.01-0.2,46.51
		c-0.03,2.73-0.55,5.62-1.56,8.15c-10.65,26.8-21.55,53.51-32.11,80.35c-2.08,5.29-5.3,7.21-10.78,7.16
		c-20.43-0.17-40.87-0.06-61.3-0.07c-8.76,0-10.05-0.86-13.31-8.99c-10.49-26.11-21.01-52.21-31.39-78.37
		c-1.01-2.54-1.58-5.41-1.61-8.14c-0.15-15.68-0.03-31.36-0.1-47.04c-0.03-6.35-3.17-9.76-8.61-9.66c-5.23,0.09-8.2,3.39-8.26,9.47
		c-0.08,8.98,0.6,18.02-0.14,26.95c-2.07,24.81,3.17,47.78,13.28,70.53c11.6,26.11,22.91,52.51,26.71,81.41
		c2.13,16.14,6.03,32.06,9.15,48.19C351.31,645.79,380.32,645.79,409.86,645.79z"/>
	<path class="st0" d="M213.76,646.01c3.71,0,7.22-0.12,10.72,0.03c5.54,0.23,8.57,3.41,8.47,8.64c-0.1,4.96-3.07,8.15-8.39,8.17
		c-26.07,0.1-52.14,0.1-78.2,0.01c-5.58-0.02-8.77-3.34-8.76-8.42c0-5.08,3.2-8.36,8.78-8.39c16.54-0.11,33.09-0.04,50.32-0.04
		c-2.31-10.97-3.64-21.82-6.95-32.03c-5.67-17.53-12.48-34.69-18.98-51.94c-4.03-10.69-8.78-21.13-12.42-31.95
		c-2.1-6.23-3.54-12.97-3.7-19.52c-0.48-19.19-0.22-38.4-0.16-57.6c0.05-15.32,11.16-26.89,25.83-27.04
		c13.84-0.15,24.71,11.42,24.86,26.66c0.12,11.98,0.32,23.97-0.08,35.93c-0.27,8.1,1.25,15.52,4.38,22.99
		c8.63,20.6,16.92,41.34,25.03,62.15c1.5,3.84,3.4,4.87,7.29,4.78c10.91-0.27,21.84-0.13,32.76-0.08c6.65,0.03,9.89,2.74,10.01,8.2
		c0.12,5.71-3.22,8.67-10.05,8.69c-14.09,0.04-28.18-0.1-42.27,0.07c-4.93,0.06-8.05-2.02-9.81-6.4
		c-11.14-27.74-22.28-55.48-33.33-83.26c-0.68-1.72-0.76-3.77-0.77-5.66c-0.06-15.5-0.01-31-0.04-46.51
		c-0.01-6.96-2.82-10.38-8.39-10.42c-5.58-0.04-8.49,3.41-8.5,10.29c-0.03,19.2-0.12,38.4,0.09,57.6c0.04,3.6,0.85,7.38,2.16,10.74
		c9.94,25.38,20.74,50.44,29.92,76.09c4.22,11.8,5.43,24.67,7.99,37.06C212.29,638.44,212.97,642.05,213.76,646.01z"/>
	<path class="st0" d="M534.71,594.33c-10.56,0-21.13-0.17-31.69,0.07c-5.15,0.12-8.3-1.99-10.15-6.64
		c-7.46-18.79-15-37.54-22.43-56.34c-2.07-5.25-0.28-10.15,4.12-12.05c4.64-2.01,9.52,0.28,11.75,5.88
		c6.42,16.17,12.8,32.37,18.95,48.64c1.24,3.27,2.66,4.6,6.35,4.54c15.67-0.24,31.34-0.22,47.01-0.01c3.45,0.05,4.82-1.26,6.02-4.28
		c9.26-23.37,18.75-46.65,28.03-70c0.94-2.37,1.41-5.09,1.43-7.65c0.13-14.44,0.03-28.88,0.08-43.32
		c0.05-15.62,11.22-27.22,26.14-27.25c13.75-0.03,24.44,11.63,24.57,26.94c0.09,11.09,0.05,22.19,0.01,33.28
		c-0.03,6.64-2.79,9.93-8.2,9.99c-5.53,0.07-8.66-3.53-8.69-10.19c-0.05-10.92,0.02-21.84-0.03-32.75
		c-0.03-6.77-3.07-10.26-8.66-10.14c-5.37,0.12-8.2,3.48-8.22,10.04c-0.04,15.5,0.06,30.99-0.09,46.49
		c-0.03,2.73-0.53,5.62-1.55,8.15c-10.67,26.59-21.58,53.09-32.17,79.71c-2.01,5.05-5.06,7.06-10.36,6.95
		C556.19,594.18,545.45,594.33,534.71,594.33z"/>
	<path class="st0" d="M602.74,646c16.73,0,32.92-0.19,49.1,0.17c2.93,0.07,6.81,1.6,8.52,3.8c4.18,5.4-0.1,12.7-7.24,12.88
		c-8.27,0.21-16.55,0.06-24.83,0.06c-18.84,0-37.69,0.04-56.53-0.02c-6.44-0.02-9.65-3.03-9.56-8.62c0.08-4.99,3.02-7.95,8.34-8.23
		c2.46-0.13,4.93-0.03,7.39-0.04c2.45,0,4.9,0,7.75,0c1.57-8.34,3.5-16.38,4.52-24.52c2.13-16.99,8.66-32.54,14.86-48.23
		c6.14-15.53,12.37-31.03,18.23-46.67c1.83-4.87,2.83-10.1,3.74-15.25c0.98-5.53,3.86-8.38,9.12-8.13c4.93,0.24,8.19,3.34,7.65,8.72
		c-0.62,6.22-1.56,12.63-3.71,18.45c-6.65,17.97-13.31,35.98-21.15,53.45C610.08,603.53,606.64,624.41,602.74,646z"/>
	<path class="st0" d="M399.97,485.33c-0.32,4.91-0.13,9.91-1.05,14.71c-3.32,17.29-18.79,28.92-35.97,27.45
		c-17.3-1.48-30.71-16-30.85-33.74c-0.06-7.9-0.46-15.97,0.91-23.68c3.02-17.01,18.74-28.38,35.76-26.94
		c17.1,1.44,30.47,15.8,30.89,33.2c0.07,2.99,0.01,5.99,0.01,8.98C399.77,485.32,399.87,485.33,399.97,485.33z M382.73,485.28
		c0-3.17,0.18-6.35-0.03-9.5c-0.58-8.83-8.01-15.77-16.74-15.82c-8.93-0.05-16.57,7.07-16.94,16.15c-0.25,6.15-0.25,12.32,0,18.47
		c0.37,8.86,7.75,15.91,16.47,16.09c8.94,0.19,16.62-6.83,17.21-15.89C382.9,491.62,382.73,488.45,382.73,485.28z"/>
	<path class="st0" d="M569.09,519.17c-0.32,4.91-0.14,9.91-1.06,14.71c-3.32,17.29-18.79,28.92-35.98,27.45
		c-17.3-1.48-30.71-16-30.84-33.74c-0.06-7.9-0.46-15.97,0.91-23.68c3.02-17,18.74-28.38,35.76-26.94
		c17.1,1.45,30.46,15.8,30.88,33.2c0.07,2.99,0.01,5.99,0.01,8.98C568.89,519.15,568.99,519.16,569.09,519.17z M551.86,519.06
		c0-2.99,0.12-5.99-0.02-8.97c-0.45-9.14-7.86-16.27-16.81-16.31c-8.94-0.03-16.54,7.11-16.89,16.2
		c-0.24,6.15-0.26,12.32,0.01,18.47c0.38,8.85,7.8,15.88,16.51,16.04c8.95,0.16,16.6-6.87,17.16-15.93
		C552.02,525.41,551.85,522.23,551.86,519.06z"/>
	<path class="st0" d="M527.25,255.54c-2.29,2.3-4.36,5.34-7.22,6.98c-3.68,2.12-6.62-0.43-8.99-3.33
		c-14.42-17.64-32.32-30.12-54.31-36.44c-4.04-1.16-8.2-1.96-12.32-2.81c-4.81-1-8.09-5.23-7.49-9.84c0.54-4.1,4.52-7.01,9.48-6.21
		c31.68,5.18,57.78,20.14,78.01,45.13C525.55,250.44,525.94,252.47,527.25,255.54z"/>
	<path class="st0" d="M262.71,561.38c-14.48-0.47-28.64-11.27-30.81-25.82c-1.61-10.8-0.78-22.06-0.13-33.05
		c0.22-3.7,2.89-7.47,5.11-10.77c2.69-3.99,7.8-4.58,11.66-2.01c3.67,2.45,4.85,7.1,2.41,11.19c-6.09,10.23-4.05,21.24-2.3,31.79
		c1.22,7.38,7.51,11.09,15.11,11.79c6.36,0.58,9.48,3.82,9.02,9.25C272.36,558.88,268.79,561.58,262.71,561.38z"/>
	<path class="st0" d="M550.77,273.64c0.84,0.27,2.38,0.61,3.79,1.24c4.8,2.15,9.55,4.41,14.31,6.63c4.76,2.22,6.61,6.17,5.04,10.74
		c-1.5,4.36-5.87,6.91-10.6,5.2c-6.08-2.2-12.02-4.91-17.72-7.97c-3.48-1.87-5.12-5.39-3.74-9.48
		C543.14,276.18,545.83,273.88,550.77,273.64z"/>
</g>
</svg>
