<?xml version="1.0" encoding="utf-8"?>
<!-- Generator: Adobe Illustrator 28.1.0, SVG Export Plug-In . SVG Version: 6.00 Build 0)  -->
<svg version="1.1" id="Capa_1" xmlns="http://www.w3.org/2000/svg" xmlns:xlink="http://www.w3.org/1999/xlink" x="0px" y="0px"
	 viewBox="0 0 1080 1080" style="enable-background:new 0 0 1080 1080;" xml:space="preserve">
<style type="text/css">
	.st0{fill:#00B5C4;}
</style>
<path class="st0" d="M867.25,462.14c-16.75,7.9-32.29,14.9-47.39,22.73c-2.15,1.11-3.11,6.22-3.12,9.49
	c-0.19,47.67-0.4,95.34,0.07,143c0.1,10.3-3.71,15.97-12.52,20.88c-59.52,33.14-122.07,57.57-189.6,68.6
	c-73.99,12.08-146.72,6.49-218.4-14.8c-43.92-13.05-85.36-31.8-125.44-53.88c-9.36-5.16-12.58-11.42-12.49-21.78
	c0.41-48.24,0.06-96.48,0.33-144.72c0.04-6.42-2.13-9.48-7.86-12.13c-38.04-17.57-75.92-35.46-113.76-53.46
	c-3.71-1.76-7.66-4.31-9.9-7.59c-4.39-6.41-0.99-13.18,8.03-17.44c36.35-17.15,72.73-34.23,109.09-51.34
	c95.43-44.91,190.88-89.77,286.22-134.85c6.82-3.22,12.67-3.34,19.46-0.14c131.21,61.91,262.49,123.69,393.76,185.47
	c5.55,2.61,11,5.21,11.25,12.52c0.26,7.79-5.39,10.72-11.2,13.45c-15.48,7.27-30.89,14.7-46.51,21.65c-4.94,2.2-6.5,5.12-6.49,10.41
	c0.17,64.79,0.17,129.59-0.01,194.39c-0.01,5.45,1.78,7.77,6.87,9.8c30.68,12.28,41.85,46.81,25.01,75.31
	c-1.79,3.04-2.71,7.45-2.13,10.9c5.16,30.35,10.55,60.67,16.34,90.9c1.62,8.47-1.05,13.66-8.51,17.3
	c-33.74,16.45-67.26,14.51-100.63-1.05c-6.89-3.21-7.86-9-6.61-15.86c5.45-29.72,10.95-59.44,15.93-89.24
	c0.71-4.25-0.1-9.66-2.24-13.35c-16.43-28.28-4.67-62.9,25.78-75.52c2.71-1.12,6.34-4.57,6.35-6.96
	C867.32,591.18,867.25,527.54,867.25,462.14z M165.52,413.02c3.6,1.84,5.55,2.9,7.56,3.85c38.4,18.1,76.81,36.18,115.22,54.26
	c81.23,38.23,162.48,76.41,243.63,114.81c5.89,2.79,10.55,3.04,16.63,0.17c110.78-52.36,221.69-104.46,332.56-156.64
	c10.91-5.13,21.75-10.4,33.87-16.2c-3.69-1.9-5.87-3.1-8.11-4.16c-119.89-56.45-239.81-112.86-359.64-169.46
	c-5.24-2.48-9.27-2.08-14.27,0.28c-91.47,43.22-183.02,86.28-274.55,129.38C228.03,383.6,197.64,397.9,165.52,413.02z
	 M793.02,497.44c-3.89,1.66-6.45,2.65-8.92,3.82c-76.58,36.05-153.23,71.96-229.65,108.36c-9.91,4.72-17.97,4.84-28.01,0.06
	c-78.72-37.53-157.7-74.5-236.62-111.61c-2.19-1.03-4.5-1.78-6.99-2.75c-0.34,1.59-0.66,2.39-0.66,3.19
	c-0.04,44.52-0.16,89.04,0.18,133.56c0.02,2.75,3,6.78,5.64,8.02c28.59,13.45,56.73,28.23,86.26,39.25
	c73.4,27.42,149.25,36.31,227.2,25.27c65.49-9.28,126.32-31.75,184.18-63.19c5.54-3.01,7.58-6.29,7.54-12.56
	c-0.27-40.52-0.14-81.05-0.14-121.58C793.02,504.49,793.02,501.71,793.02,497.44z M845.63,837.55c22.61,9.14,44.39,9.57,66.75,0.16
	c-4.88-26.69-9.62-52.61-14.13-77.25c-13.18,0-25.45,0-38.55,0C855.21,785.09,850.52,810.75,845.63,837.55z M879.44,682.6
	c-15.93,0.03-28.48,12.35-28.36,27.83c0.12,14.9,12.99,27.71,27.89,27.73c14.9,0.02,27.7-12.7,27.89-27.7
	C907.04,695.38,894.44,682.57,879.44,682.6z"/>
</svg>
