<?xml version="1.0" encoding="utf-8"?>
<!-- Generator: Adobe Illustrator 28.0.0, SVG Export Plug-In . SVG Version: 6.00 Build 0)  -->
<svg version="1.1" id="Capa_1" xmlns="http://www.w3.org/2000/svg" xmlns:xlink="http://www.w3.org/1999/xlink" x="0px" y="0px"
	 viewBox="0 0 1080 1080" style="enable-background:new 0 0 1080 1080;" xml:space="preserve">
<style type="text/css">
	.st0{fill:#FFFFFF;}
</style>
<g>
	<g>
		<g>
			<path class="st0" d="M1041.72,496.04c-3.24,7.04-5.78,14.52-11.87,19.82c-11.63,10.11-24.9,13.25-39.33,7.61
				c-14.37-5.63-22.26-16.76-23.9-32.13c-0.37-3.42-0.21-6.9-0.21-10.35c-0.01-67.77,0.08-135.55-0.04-203.32
				c-0.07-38.15-21.58-67.57-56.99-76.57c-20.89-5.31-42.5-1.87-63.78-2.59c-4.89-0.17-3.4,3.51-3.43,5.95
				c-0.13,10.35,0.13,20.71-0.11,31.06c-0.51,22.11-16.95,38.52-38.09,38.25c-20.74-0.26-36.63-16.53-37.13-38.28
				c-0.23-10.04-0.29-20.09,0.05-30.12c0.16-4.95-0.69-7.04-6.43-7.01c-53.03,0.24-106.05,0.22-159.08,0.01
				c-5.27-0.02-6.16,1.84-6.04,6.44c0.28,10.35,0.29,20.71,0.02,31.06c-0.56,21.66-16.7,37.84-37.49,37.9
				c-20.77,0.06-37.08-16.12-37.69-37.7c-0.29-10.35-0.19-20.71-0.02-31.06c0.07-4.24-0.15-6.69-5.81-6.66
				c-52.71,0.25-105.43,0.21-158.14,0.05c-4.62-0.01-5.82,1.4-5.69,5.83c0.3,10.03,0.22,20.08,0.07,30.12
				c-0.33,22.92-16.4,39.56-37.89,39.42c-21.13-0.14-36.99-16.6-37.37-38.99c-0.18-10.35,0-20.71-0.06-31.06
				c-0.01-2.31,0.95-5.38-3.26-5.22c-20.95,0.8-42.23-2.74-62.79,2.84c-33.65,9.14-54.63,36.37-56.26,71.42
				c-0.06,1.25-0.07,2.51-0.07,3.76c0,193.91-0.06,387.81,0.05,581.72c0.02,37.36,20.94,65.29,55.89,75.54
				c8.49,2.49,17.26,2.9,26.07,2.9c92.25-0.03,184.5,0.05,276.74-0.1c12.53-0.02,23.64,2.88,32.3,12.28
				c17.55,19.06,11.18,49.16-12.51,59.78c-2.52,1.13-5.05,2.23-7.57,3.34c-104.83,0-209.65,0-314.48,0
				c-45.01-3.44-78.85-26.3-105.36-61.32c-18.59-24.55-27.43-52.44-27.41-83.34c0.1-199.86,0.45-399.72-0.17-599.58
				c-0.21-68.45,52.36-121.87,100.04-138.25c25.19-8.65,50.94-9.6,77.09-9.17c20.11,0.33,18.93,1.5,18.97-18.75
				c0.01-6.27-0.3-12.56,0.28-18.82c2.03-21.84,16.54-35.37,38.31-35.82c26.27-0.54,41.49,14.08,42.21,40.62
				c0.19,7.21-0.04,14.43,0.09,21.65c0.18,10.24,0.99,11.13,11.52,11.16c39.53,0.09,79.07,0.03,118.6,0.04
				c7.84,0,15.7-0.3,23.53,0.07c7.86,0.37,10.68-3.12,10.33-10.65c-0.33-7.2-0.18-14.43-0.02-21.64
				c0.58-26.48,15.24-41.32,40.68-41.24c24.85,0.07,39.48,14.97,40.09,40.89c0.17,7.21-0.04,14.43,0.07,21.65
				c0.16,10.01,0.88,10.84,10.7,10.89c20.71,0.11,41.42,0.03,62.12,0.03c26.98,0,53.97,0.05,80.95-0.02
				c11.18-0.03,11.85-0.75,12.01-11.58c0.12-7.84-0.25-15.7,0.16-23.53c1.25-24.19,16.42-38.42,40.67-38.33
				c23.68,0.09,38.62,14.3,39.9,38.13c0.47,8.77,0.24,17.57,0.14,26.35c-0.07,6.41,2.79,9.03,9.08,8.99
				c11.29-0.08,22.59-0.13,33.89,0.01c63.98,0.78,110.46,30.4,141,85.95c8.61,15.65,11.25,32.99,12.89,50.5
				C1041.72,336.6,1041.72,416.32,1041.72,496.04z"/>
		</g>
		<g>
			<path class="st0" d="M350.57,443.36c-0.03,20.61-17.05,37.59-37.65,37.56c-20.61-0.03-37.59-17.05-37.56-37.65
				c0.03-20.61,17.05-37.59,37.65-37.56C333.61,405.73,350.6,422.75,350.57,443.36z"/>
		</g>
		<g>
			<path class="st0" d="M476.87,480.92c-20.6,0.05-37.65-16.92-37.69-37.52c-0.05-20.6,16.92-37.65,37.52-37.69
				c20.6-0.05,37.65,16.92,37.69,37.52C514.45,463.83,497.48,480.87,476.87,480.92z"/>
		</g>
		<g>
			<path class="st0" d="M640.39,405.7c20.61-0.13,37.72,16.77,37.84,37.37c0.13,20.61-16.77,37.72-37.37,37.84
				c-20.61,0.13-37.71-16.77-37.84-37.37C602.88,422.94,619.78,405.83,640.39,405.7z"/>
		</g>
		<g>
			<path class="st0" d="M842.06,443.23c0.04,20.6-16.93,37.64-37.53,37.69c-20.6,0.04-37.64-16.93-37.69-37.53
				c-0.04-20.6,16.93-37.64,37.53-37.69C824.98,405.66,842.02,422.63,842.06,443.23z"/>
		</g>
		<g>
			<path class="st0" d="M350.57,607.36c-0.12,20.61-17.21,37.51-37.82,37.39c-20.61-0.12-37.51-17.21-37.39-37.82
				c0.12-20.61,17.21-37.51,37.82-37.39C333.79,569.65,350.69,586.74,350.57,607.36z"/>
		</g>
		<g>
			<path class="st0" d="M477.19,644.75c-20.62,0.21-37.79-16.6-38-37.21c-0.21-20.62,16.61-37.79,37.21-38
				c20.62-0.21,37.79,16.6,38,37.21C514.61,627.36,497.79,644.53,477.19,644.75z"/>
		</g>
		<g>
			<path class="st0" d="M350.57,771.11c-0.08,20.6-17.14,37.55-37.75,37.47c-20.61-0.08-37.55-17.14-37.47-37.75
				c0.08-20.6,17.14-37.55,37.75-37.47C333.7,733.44,350.65,750.5,350.57,771.11z"/>
		</g>
		<g>
			<path class="st0" d="M514.4,771.2c-0.13,20.6-17.24,37.5-37.84,37.37c-20.6-0.13-37.5-17.24-37.37-37.84
				c0.13-20.6,17.24-37.5,37.84-37.37C497.63,733.49,514.53,750.6,514.4,771.2z"/>
		</g>
		<path class="st0" d="M1039.75,755.05c-3.06-22.14-8.53-43.64-18.16-63.85c-35.14-73.67-92.58-119.1-173.43-131.67
			c-77.14-11.99-144.26,11.19-198.25,67.32c-52.41,54.49-71.53,120.36-60.45,195.39c12.18,82.53,80.43,159.25,161.33,180.81
			c12.2,3.25,25.08,3.55,36.72,8.95c3.14,0,6.28,0,9.42,0c1.26-1.18,2.51-1.18,3.77,0c8.79,0,17.58,0,26.36,0
			c1.26-1.18,2.51-1.18,3.77,0c1.88,0,3.77,0,5.65,0c7.89-1.99,16.14-0.98,24.04-2.7c64.32-13.98,113.99-49.07,149.07-104.58
			c18.17-28.75,29.11-60.18,32.15-94.2c0-3.14,0-6.28,0-9.42c-2.55-1.26-2.17-2.51,0-3.77c0-8.79,0-17.58,0-26.36
			c-2.17-1.26-2.55-2.51,0-3.77c0-2.51,0-5.02,0-7.53C1039.11,758.97,1039.98,756.72,1039.75,755.05z M813.39,936.65
			c-83.63-0.31-151.87-68.67-152.02-152.28c-0.15-83.92,68.56-152.74,152.51-152.73c83.95,0.01,152.66,68.83,152.5,152.75
			C966.21,868.37,897.28,936.97,813.39,936.65z"/>
		<path class="st0" d="M776.22,745.22c0-12.55-0.22-25.11,0.05-37.65c0.47-22.11,16.96-38.51,38.1-38.23
			c20.74,0.27,36.59,16.55,37.11,38.31c0.2,8.47,0.05,16.94,0.05,25.42c0,13.35,0,13.34,12.95,13.44c4.38,0.04,8.72,0.09,13.05,1.26
			c18.04,4.86,29.8,20.92,28.44,39.17c-1.38,18.51-16.05,33.82-34.83,34.55c-20.05,0.78-40.18,0.84-60.23-0.04
			c-19.49-0.85-33.99-16.77-34.59-36.68c-0.4-13.17-0.08-26.36-0.08-39.53C776.24,745.22,776.23,745.22,776.22,745.22z"/>
	</g>
</g>
</svg>
