<?xml version="1.0" encoding="utf-8"?>
<!-- Generator: Adobe Illustrator 28.0.0, SVG Export Plug-In . SVG Version: 6.00 Build 0)  -->
<svg version="1.1" id="Capa_1" xmlns="http://www.w3.org/2000/svg" xmlns:xlink="http://www.w3.org/1999/xlink" x="0px" y="0px"
	 viewBox="0 0 1080 1080" style="enable-background:new 0 0 1080 1080;" xml:space="preserve">
<style type="text/css">
	.st0{fill:#FFFFFF;}
</style>
<g>
	<path class="st0" d="M1035,922.14c-10.61,12.81-15.35,13.81-30.52,6.23c-33.38-16.66-66.81-33.21-100.03-50.18
		c-5.95-3.04-10.05-2.61-15.62,1.07c-169.21,111.82-398.15,42.3-476.31-144.66c-2.89-6.9-6.15-8.71-13.46-8.02
		c-75.9,7.15-145.58-10.91-209-53.02c-5.24-3.48-9.07-2.7-14.04-0.19c-34.16,17.27-68.45,34.27-102.63,51.5
		c-7.81,3.94-15.41,5.36-22.39-1c-7.26-6.63-7.02-14.39-2.76-22.83c17.37-34.47,34.4-69.11,51.92-103.5
		c2.84-5.57,2.84-9.37-0.72-14.76C-28.11,389.42,81.04,129.56,308.13,85.62c148.75-28.78,297.71,50.01,358.39,189.91
		c3.08,7.1,6.59,9.41,14.15,9.16c49.27-1.67,98.1,1.84,144.17,20.88c121.72,50.32,191.67,140.84,208.48,271.87
		c0.36,2.8,1.11,5.55,1.68,8.33c0,16.11,0,32.22,0,48.33c-0.58,2.13-1.48,4.23-1.68,6.4c-4.8,51.2-21.05,98.57-49.2,141.46
		c-6.47,9.86-6.35,16.81-1.15,26.64c17.82,33.73,34.76,67.93,52.03,101.95C1035,914.4,1035,918.27,1035,922.14z M101.9,670.22
		c0.49,0.47,0.97,0.94,1.46,1.41c22.4-11.19,45.08-21.89,67.11-33.79c11.78-6.37,20.86-5.25,31.77,2.51
		c59.02,41.98,124.89,59.45,197.01,52.1C562.58,675.8,679.49,526.29,656.53,363.7C632.36,192.61,464.55,80.04,297.75,123.02
		C99.67,174.07,15.08,406.5,134.18,572.94c6.88,9.61,7.77,17.97,2.27,28.42C124.5,624.09,113.37,647.24,101.9,670.22z M976.64,876.3
		c0.56-0.42,1.13-0.84,1.69-1.26c-11.19-22.34-21.92-44.93-33.74-66.93c-6.27-11.68-5.55-20.82,2.31-31.84
		c44.86-62.92,63.34-133.56,50.42-209.44c-20.86-122.48-92.95-202-211.99-238.14c-33.25-10.1-67.62-11.04-102.91-9.42
		c22.14,88.83,11.98,172.81-35,250.89c-46.9,77.95-115.94,126.9-204.37,149.76c1.91,4.35,3.49,8.18,5.26,11.93
		c77.37,164.27,282.14,218.14,430.3,112.91c10.64-7.56,19.46-8.44,30.9-2.26C931.54,854.41,954.23,865.11,976.64,876.3z"/>
	<path class="st0" d="M420.43,403.98c0.03,28.32-22.34,50.94-50.65,51.21c-28.28,0.27-51.9-23.27-51.64-51.47
		c0.26-28.01,23.31-50.71,51.41-50.62C397.92,353.19,420.39,375.67,420.43,403.98z M369.55,387c-9.25-0.09-17.08,7.82-17.02,17.18
		c0.06,9.37,7.98,17.18,17.22,16.97c8.93-0.2,16.34-7.67,16.55-16.69C386.51,395.08,378.85,387.09,369.55,387z"/>
	<path class="st0" d="M454.92,403.99c0.03-28.25,22.58-50.8,50.91-50.89c28.11-0.1,51.16,22.6,51.41,50.61
		c0.25,28.24-23.33,51.76-51.61,51.49C477.38,454.93,454.89,432.21,454.92,403.99z M506.03,386.99
		c-9.29-0.05-16.96,7.81-16.86,17.28c0.09,9.14,7.25,16.56,16.26,16.89c9.24,0.33,17.22-7.38,17.37-16.76
		C522.95,394.99,515.29,387.04,506.03,386.99z"/>
	<path class="st0" d="M181.94,403.71c0.16-28.32,22.77-50.7,51.12-50.6c28.27,0.1,50.97,22.74,51.05,50.88
		c0.07,28.41-23.38,51.58-51.82,51.17C203.98,454.77,181.78,432.08,181.94,403.71z M249.94,403.8c-0.17-9.26-8.4-17.11-17.57-16.78
		c-8.84,0.32-16.43,8.07-16.54,16.88c-0.12,9.18,7.94,17.31,17.12,17.27C242.19,421.13,250.11,413.02,249.94,403.8z"/>
	<path class="st0" d="M710.39,659.88c-28.72-0.24-51.04-23.21-50.63-52.1c0.39-28.02,23.74-50.54,51.84-49.99
		c28.08,0.55,50.88,23.92,50.43,51.68C761.58,637.57,738.47,660.12,710.39,659.88z M710.71,591.8c-9.32,0.03-16.98,7.93-16.82,17.36
		c0.15,9.01,7.52,16.53,16.45,16.79c9.21,0.27,17.21-7.54,17.31-16.89C727.74,599.71,719.96,591.78,710.71,591.8z"/>
	<path class="st0" d="M847.31,659.88c-28.22,0.02-51.01-22.53-51.24-50.71c-0.24-28.35,23.15-51.62,51.62-51.35
		c28.34,0.26,50.62,22.85,50.54,51.24C898.15,637.42,875.67,659.86,847.31,659.88z M864.33,609.32c0.28-9.16-7.65-17.39-16.86-17.51
		c-8.86-0.11-16.68,7.22-17.22,16.14c-0.55,9.18,7.06,17.57,16.32,18.01C855.67,626.39,864.05,618.53,864.33,609.32z"/>
</g>
</svg>
