<?xml version="1.0" encoding="utf-8"?>
<!-- Generator: Adobe Illustrator 28.1.0, SVG Export Plug-In . SVG Version: 6.00 Build 0)  -->
<svg version="1.1" id="Capa_1" xmlns="http://www.w3.org/2000/svg" xmlns:xlink="http://www.w3.org/1999/xlink" x="0px" y="0px"
	 viewBox="0 0 384 465" style="enable-background:new 0 0 384 465;" xml:space="preserve">
<style type="text/css">
	.st0{fill:#FFD520;}
</style>
<g>
	<g>
		<g>
			<g>
				<path class="st0" d="M182.9,453c-2.5-2-5.2-3.7-7.5-5.9c-30.9-30.8-61.5-62-88.6-96.4c-23.1-29.4-43.6-60.2-57.2-95.3
					c-7.9-20.2-13-41.1-13.7-62.8c-1.3-38.4,11.3-72.2,34.9-102.1c25.1-31.8,56.4-54.5,96.3-62.9c66.7-14,122.9,5.3,167.7,56.8
					c19.6,22.4,33,48.1,38,77.7c4.8,28.1,1.1,55.4-7.7,82.2c-10.3,31.2-26.8,59.2-45.8,85.9c-26.6,37.2-57.8,70.5-90,102.9
					c-4.7,4.8-9.4,9.6-14.2,14.2c-2.2,2.1-4.8,3.8-7.2,5.6C186.2,453,184.6,453,182.9,453z M185.1,428.4c0.7-0.5,1.1-0.6,1.4-0.9
					c31.7-31.8,63-64.1,90-100.2c20.1-26.9,37.8-55.1,48.8-87.1c9.3-26.9,12.8-54.4,6.2-82.5c-6-25.1-18.8-46.6-36.3-65.2
					c-39.7-42.3-88.1-57.7-144.7-45c-36.7,8.2-64.8,29.9-87,59.7c-22.5,30.3-31.6,64-25.8,101.6c4.1,26.9,14.5,51.6,27.9,75
					C97.1,338.8,140.8,383.7,185.1,428.4z"/>
			</g>
			<g>
				<path class="st0" d="M182.9,453c-2.5-2-5.2-3.7-7.5-5.9c-30.9-30.8-61.5-62-88.6-96.4c-23.1-29.4-43.6-60.2-57.2-95.3
					c-7.9-20.2-13-41.1-13.7-62.8c-1.3-38.4,11.3-72.2,34.9-102.1c25.1-31.8,56.4-54.5,96.3-62.9c66.7-14,122.9,5.3,167.7,56.8
					c19.6,22.4,33,48.1,38,77.7c4.8,28.1,1.1,55.4-7.7,82.2c-10.3,31.2-26.8,59.2-45.8,85.9c-26.6,37.2-57.8,70.5-90,102.9
					c-4.7,4.8-9.4,9.6-14.2,14.2c-2.2,2.1-4.8,3.8-7.2,5.6C186.2,453,184.6,453,182.9,453z M185.1,428.4c0.7-0.5,1.1-0.6,1.4-0.9
					c31.7-31.8,63-64.1,90-100.2c20.1-26.9,37.8-55.1,48.8-87.1c9.3-26.9,12.8-54.4,6.2-82.5c-6-25.1-18.8-46.6-36.3-65.2
					c-39.7-42.3-88.1-57.7-144.7-45c-36.7,8.2-64.8,29.9-87,59.7c-22.5,30.3-31.6,64-25.8,101.6c4.1,26.9,14.5,51.6,27.9,75
					C97.1,338.8,140.8,383.7,185.1,428.4z"/>
			</g>
		</g>
		<g>
			<g>
				<path class="st0" d="M185.3,125.5c40.9-0.1,74,32.9,74.1,73.7c0.1,40.9-32.9,74.1-73.6,74.2c-41.1,0.1-74.3-32.9-74.3-73.9
					C111.4,158.6,144.4,125.5,185.3,125.5z M185.7,145.6c-29.7-0.1-53.9,23.7-54.1,53.2c-0.2,29.9,23.7,54.3,53.3,54.4
					c29.9,0.1,54.2-23.7,54.3-53.4C239.3,169.9,215.5,145.7,185.7,145.6z"/>
			</g>
			<g>
				<path class="st0" d="M185.3,125.5c40.9-0.1,74,32.9,74.1,73.7c0.1,40.9-32.9,74.1-73.6,74.2c-41.1,0.1-74.3-32.9-74.3-73.9
					C111.4,158.6,144.4,125.5,185.3,125.5z M185.7,145.6c-29.7-0.1-53.9,23.7-54.1,53.2c-0.2,29.9,23.7,54.3,53.3,54.4
					c29.9,0.1,54.2-23.7,54.3-53.4C239.3,169.9,215.5,145.7,185.7,145.6z"/>
			</g>
		</g>
	</g>
</g>
</svg>
