<?xml version="1.0" encoding="utf-8"?>
<!-- Generator: Adobe Illustrator 28.1.0, SVG Export Plug-In . SVG Version: 6.00 Build 0)  -->
<svg version="1.1" id="Capa_1" xmlns="http://www.w3.org/2000/svg" xmlns:xlink="http://www.w3.org/1999/xlink" x="0px" y="0px"
	 viewBox="0 0 1080 1080" style="enable-background:new 0 0 1080 1080;" xml:space="preserve">
<style type="text/css">
	.st0{fill:#FFD520;}
</style>
<g>
	<g>
		<g>
			<g>
				<path class="st0" d="M541.5,46.2C261.8,45.4,35.1,269,32.9,552.1c-2,278.2,225.7,506.7,506.6,508.3
					c278.2,1.6,506.2-224.1,507.6-505.7C1048.5,275.7,825.1,47,541.5,46.2z M539.6,968C311,967.5,125.1,781.2,125.3,552.8
					c0.2-228.5,186.4-414.6,414.9-414.6c228.6,0,414.7,186,414.9,414.6C955.3,781.7,768.4,968.5,539.6,968z"/>
			</g>
		</g>
		<path class="st0" d="M494.4,414.6c0-46.4-0.2-92.9,0.1-139.3c0.1-19.6,10.2-33.7,28-41.1c17.3-7.2,34-4.4,48.3,8
			c11.3,9.8,15.5,22.7,15.4,37.6c-0.2,56.9-0.1,113.7-0.1,170.6c0,24.8,0.2,49.7-0.1,74.5c-0.1,6.3,1.8,10.7,6.2,15.1
			c39.3,39,78.7,78.1,117.6,117.6c26,26.3,16.3,67.8-18,77.9c-16.8,4.9-32.4,1.6-44.9-10.8c-46.8-46.4-93.2-93-139.8-139.7
			c-9.7-9.7-12.9-21.8-12.9-35.4C494.4,504.6,494.3,459.6,494.4,414.6C494.3,414.6,494.3,414.6,494.4,414.6z"/>
	</g>
</g>
</svg>
