<?xml version="1.0" encoding="utf-8"?>
<!-- Generator: Adobe Illustrator 28.0.0, SVG Export Plug-In . SVG Version: 6.00 Build 0)  -->
<svg version="1.1" id="Capa_1" xmlns="http://www.w3.org/2000/svg" xmlns:xlink="http://www.w3.org/1999/xlink" x="0px" y="0px"
	 viewBox="0 0 1080 368" style="enable-background:new 0 0 1080 368;" xml:space="preserve">
<style type="text/css">
	.st0{fill:#FFFFFF;}
</style>
<g>
	<g>
		<path class="st0" d="M167.16,47.24v15.84h-38.9v97.78h-18.42V63.08h-38.9V47.24H167.16z"/>
		<path class="st0" d="M166.87,160.85V74.78h15.66l1.72,15.49c2.29-5.62,5.71-9.9,10.24-12.82c4.53-2.92,10.13-4.39,16.78-4.39
			c1.72,0,3.44,0.14,5.17,0.43c1.72,0.29,3.15,0.72,4.3,1.29l-2.58,16.18c-1.27-0.45-2.67-0.83-4.22-1.12
			c-1.55-0.29-3.65-0.43-6.29-0.43c-3.56,0-7.06,0.95-10.5,2.84c-3.44,1.89-6.29,4.73-8.52,8.52c-2.24,3.79-3.36,8.61-3.36,14.46
			v45.62H166.87z"/>
		<path class="st0" d="M283.63,105.59c0-5.73-1.58-10.18-4.73-13.34c-3.16-3.16-7.49-4.73-13-4.73c-5.16,0-9.58,1.2-13.25,3.61
			c-3.67,2.41-6.37,6.31-8.09,11.71l-15.49-6.55c2.18-6.99,6.45-12.62,12.82-16.87s14.6-6.37,24.7-6.37
			c6.89,0,12.97,1.12,18.25,3.35c5.28,2.24,9.44,5.6,12.48,10.07c3.04,4.47,4.56,10.21,4.56,17.21v38.39c0,4.25,2.12,6.37,6.37,6.37
			c2.06,0,4.07-0.29,6.03-0.86l-1.03,12.74c-2.65,1.26-5.97,1.89-9.98,1.89c-3.68,0-6.97-0.66-9.9-1.98
			c-2.93-1.31-5.23-3.33-6.89-6.03c-1.66-2.69-2.5-6.05-2.5-10.07v-1.2l3.79-0.18c-1.03,4.48-3.16,8.18-6.37,11.1
			c-3.22,2.93-6.95,5.11-11.19,6.55c-4.24,1.43-8.55,2.15-12.91,2.15c-5.39,0-10.24-0.86-14.55-2.58c-4.3-1.72-7.69-4.34-10.15-7.83
			c-2.47-3.5-3.7-7.84-3.7-13c0-6.43,2.09-11.71,6.29-15.84c4.19-4.13,10.13-6.94,17.82-8.43l33.4-6.55l-0.17,12.91l-24.28,4.99
			c-4.82,0.92-8.44,2.24-10.84,3.96c-2.41,1.72-3.61,4.24-3.61,7.57c0,3.22,1.23,5.77,3.7,7.66c2.46,1.89,5.77,2.84,9.9,2.84
			c2.87,0,5.65-0.34,8.35-1.03c2.7-0.69,5.13-1.81,7.32-3.36c2.18-1.55,3.87-3.56,5.08-6.03c1.21-2.46,1.81-5.42,1.81-8.87V105.59z"
			/>
		<path class="st0" d="M326.79,160.85V74.78h16.35l1.21,22.38l-2.41-2.41c1.61-4.93,3.93-9.04,6.97-12.31
			c3.04-3.27,6.66-5.65,10.85-7.14c4.19-1.49,8.63-2.24,13.34-2.24c6.08,0,11.56,1.18,16.44,3.53c4.87,2.35,8.75,5.88,11.62,10.59
			c2.87,4.71,4.3,10.67,4.3,17.9v55.77h-18.42v-50.09c0-8.49-1.75-14.37-5.25-17.65c-3.5-3.27-7.89-4.91-13.17-4.91
			c-3.79,0-7.46,0.89-11.02,2.67c-3.56,1.78-6.51,4.62-8.87,8.52c-2.35,3.9-3.53,9.13-3.53,15.66v45.79H326.79z"/>
		<path class="st0" d="M459.97,162.57c-8.61,0-16.47-1.66-23.58-4.99c-7.12-3.33-12.74-8.03-16.87-14.12l12.74-11.02
			c2.52,4.71,6.17,8.46,10.93,11.28c4.76,2.81,10.47,4.22,17.13,4.22c5.28,0,9.47-0.92,12.57-2.76c3.09-1.83,4.65-4.42,4.65-7.75
			c0-2.18-0.72-4.1-2.15-5.77c-1.44-1.66-4.17-2.96-8.18-3.87l-18.08-3.79c-9.18-1.83-15.72-4.79-19.62-8.87
			c-3.91-4.07-5.86-9.26-5.86-15.58c0-4.7,1.38-9.06,4.13-13.08c2.75-4.02,6.8-7.26,12.13-9.73c5.34-2.46,11.73-3.7,19.19-3.7
			c8.61,0,15.95,1.52,22.03,4.56c6.08,3.04,10.73,7.37,13.94,12.99l-12.74,10.67c-2.18-4.59-5.39-8-9.64-10.24
			c-4.24-2.24-8.66-3.35-13.25-3.35c-3.67,0-6.83,0.46-9.47,1.38s-4.65,2.18-6.03,3.79c-1.38,1.61-2.07,3.5-2.07,5.68
			c0,2.29,0.86,4.3,2.59,6.03c1.72,1.72,4.82,3.04,9.29,3.96l19.62,4.13c8.26,1.61,14.08,4.34,17.47,8.18
			c3.39,3.85,5.08,8.52,5.08,14.03c0,5.51-1.44,10.35-4.31,14.55c-2.87,4.19-7,7.43-12.39,9.72
			C473.85,161.42,467.43,162.57,459.97,162.57z"/>
		<path class="st0" d="M512.83,160.85V74.78h16.35l0.86,14.46c2.98-5.51,6.97-9.58,11.96-12.22s10.3-3.96,15.92-3.96
			c6.2,0,11.91,1.4,17.13,4.22c5.23,2.81,9.15,7.03,11.8,12.65c1.83-3.78,4.35-6.94,7.57-9.46c3.21-2.52,6.77-4.39,10.67-5.6
			s7.75-1.81,11.53-1.81c5.51,0,10.67,1.15,15.5,3.44c4.82,2.29,8.72,5.79,11.71,10.5c2.98,4.71,4.48,10.73,4.48,18.08v55.77h-18.42
			V108c0-7-1.66-12.05-4.99-15.14c-3.33-3.1-7.58-4.65-12.74-4.65c-4.02,0-7.72,0.98-11.1,2.93c-3.39,1.95-6.12,4.85-8.18,8.69
			c-2.07,3.85-3.1,8.58-3.1,14.2v46.82h-18.42V108c0-7-1.66-12.05-4.99-15.14c-3.33-3.1-7.57-4.65-12.74-4.65
			c-3.44,0-6.88,0.92-10.33,2.76c-3.44,1.84-6.31,4.71-8.61,8.61c-2.3,3.91-3.44,9.07-3.44,15.5v45.79H512.83z"/>
		<path class="st0" d="M679.02,60.32c-4.02,0-7.08-1-9.21-3.01c-2.12-2.01-3.18-4.85-3.18-8.52s1.07-6.49,3.18-8.44
			c2.13-1.95,5.19-2.92,9.21-2.92c3.9,0,6.92,0.97,9.04,2.92c2.12,1.95,3.18,4.76,3.18,8.44s-1.07,6.51-3.18,8.52
			C685.93,59.32,682.92,60.32,679.02,60.32z M688.14,74.78v86.07h-18.42V74.78H688.14z"/>
		<path class="st0" d="M743.46,162.57c-8.61,0-16.47-1.66-23.58-4.99c-7.12-3.33-12.74-8.03-16.87-14.12l12.74-11.02
			c2.52,4.71,6.17,8.46,10.93,11.28s10.47,4.22,17.13,4.22c5.28,0,9.47-0.92,12.57-2.76c3.09-1.83,4.65-4.42,4.65-7.75
			c0-2.18-0.72-4.1-2.15-5.77c-1.44-1.66-4.17-2.96-8.18-3.87l-18.08-3.79c-9.18-1.83-15.72-4.79-19.62-8.87
			c-3.91-4.07-5.86-9.26-5.86-15.58c0-4.7,1.38-9.06,4.13-13.08c2.75-4.02,6.8-7.26,12.14-9.73c5.34-2.46,11.73-3.7,19.19-3.7
			c8.61,0,15.95,1.52,22.03,4.56c6.08,3.04,10.73,7.37,13.94,12.99l-12.74,10.67c-2.18-4.59-5.39-8-9.64-10.24
			c-4.24-2.24-8.66-3.35-13.25-3.35c-3.67,0-6.83,0.46-9.47,1.38c-2.64,0.92-4.65,2.18-6.03,3.79s-2.07,3.5-2.07,5.68
			c0,2.29,0.86,4.3,2.59,6.03c1.72,1.72,4.82,3.04,9.29,3.96l19.62,4.13c8.26,1.61,14.08,4.34,17.47,8.18
			c3.39,3.85,5.08,8.52,5.08,14.03c0,5.51-1.44,10.35-4.31,14.55c-2.87,4.19-7,7.43-12.39,9.72
			C757.35,161.42,750.92,162.57,743.46,162.57z"/>
		<path class="st0" d="M805.19,60.32c-4.02,0-7.08-1-9.21-3.01c-2.12-2.01-3.18-4.85-3.18-8.52s1.07-6.49,3.18-8.44
			c2.13-1.95,5.19-2.92,9.21-2.92c3.9,0,6.92,0.97,9.04,2.92c2.12,1.95,3.18,4.76,3.18,8.44s-1.07,6.51-3.18,8.52
			C812.11,59.32,809.09,60.32,805.19,60.32z M814.32,74.78v86.07H795.9V74.78H814.32z"/>
		<path class="st0" d="M874.34,73.06c8.38,0,15.78,1.78,22.21,5.34c6.43,3.56,11.45,8.69,15.06,15.4
			c3.61,6.71,5.43,14.72,5.43,24.02s-1.81,17.3-5.43,24.01c-3.61,6.71-8.63,11.86-15.06,15.41s-13.83,5.34-22.21,5.34
			c-8.38,0-15.78-1.78-22.2-5.34c-6.43-3.56-11.48-8.7-15.15-15.41c-3.67-6.71-5.51-14.72-5.51-24.01s1.83-17.3,5.51-24.02
			c3.67-6.71,8.72-11.85,15.15-15.4C858.55,74.84,865.96,73.06,874.34,73.06z M874.34,87.52c-5.16,0-9.55,1.18-13.17,3.52
			c-3.61,2.36-6.4,5.77-8.35,10.24c-1.96,4.48-2.92,9.98-2.92,16.53c0,6.43,0.97,11.91,2.92,16.44c1.95,4.54,4.73,7.98,8.35,10.33
			c3.61,2.35,8.01,3.53,13.17,3.53c5.17,0,9.53-1.18,13.08-3.53c3.56-2.35,6.31-5.79,8.26-10.33c1.95-4.53,2.93-10.01,2.93-16.44
			c0-6.55-0.98-12.05-2.93-16.53c-1.95-4.47-4.71-7.88-8.26-10.24C883.86,88.7,879.5,87.52,874.34,87.52z M877.09,32.43h18.59
			l-17.04,28.92h-14.11L877.09,32.43z"/>
		<path class="st0" d="M934.33,160.85V74.78h16.35l1.21,22.38l-2.41-2.41c1.61-4.93,3.93-9.04,6.97-12.31
			c3.04-3.27,6.66-5.65,10.85-7.14c4.19-1.49,8.63-2.24,13.34-2.24c6.08,0,11.56,1.18,16.44,3.53c4.87,2.35,8.75,5.88,11.62,10.59
			c2.87,4.71,4.3,10.67,4.3,17.9v55.77h-18.42v-50.09c0-8.49-1.75-14.37-5.25-17.65c-3.5-3.27-7.89-4.91-13.17-4.91
			c-3.79,0-7.46,0.89-11.02,2.67c-3.56,1.78-6.51,4.62-8.87,8.52c-2.35,3.9-3.53,9.13-3.53,15.66v45.79H934.33z"/>
		<path class="st0" d="M136.7,243.99h19.28l-34.26,86.07h-20.14l-34.43-86.07h20.14l24.44,70.06L136.7,243.99z"/>
		<path class="st0" d="M179.63,201.64h18.59l-17.04,28.92h-14.12L179.63,201.64z M186,243.99v86.07h-18.42v-86.07H186z"/>
		<path class="st0" d="M258.22,274.8c0-5.73-1.58-10.18-4.73-13.34c-3.16-3.16-7.49-4.73-13-4.73c-5.16,0-9.58,1.2-13.25,3.61
			c-3.67,2.41-6.37,6.31-8.09,11.71l-15.49-6.55c2.18-6.99,6.45-12.62,12.82-16.87c6.37-4.24,14.6-6.37,24.7-6.37
			c6.89,0,12.97,1.12,18.25,3.35c5.28,2.24,9.44,5.6,12.48,10.07c3.04,4.47,4.56,10.21,4.56,17.21v38.39c0,4.25,2.12,6.37,6.37,6.37
			c2.06,0,4.07-0.29,6.03-0.86l-1.03,12.74c-2.65,1.26-5.97,1.89-9.98,1.89c-3.68,0-6.97-0.66-9.9-1.98
			c-2.93-1.31-5.23-3.33-6.89-6.03c-1.66-2.69-2.5-6.05-2.5-10.07v-1.2l3.79-0.18c-1.03,4.48-3.16,8.18-6.37,11.1
			c-3.22,2.93-6.95,5.11-11.19,6.55c-4.24,1.43-8.55,2.15-12.91,2.15c-5.39,0-10.24-0.86-14.55-2.58c-4.3-1.72-7.69-4.34-10.15-7.83
			c-2.47-3.5-3.7-7.84-3.7-13c0-6.43,2.09-11.71,6.29-15.84c4.19-4.13,10.13-6.94,17.82-8.43l33.4-6.55l-0.17,12.91l-24.28,4.99
			c-4.82,0.92-8.44,2.24-10.84,3.96c-2.41,1.72-3.61,4.24-3.61,7.57c0,3.22,1.23,5.77,3.7,7.66c2.46,1.89,5.77,2.84,9.9,2.84
			c2.87,0,5.65-0.34,8.35-1.03c2.7-0.69,5.13-1.81,7.32-3.36c2.18-1.55,3.87-3.56,5.08-6.03c1.21-2.46,1.81-5.42,1.81-8.87V274.8z"
			/>
	</g>
	<g>
		<g>
			<path class="st0" d="M804.62,334.46c-1.2-0.23-2.39-0.59-3.6-0.68c-11.68-0.87-17.53-6.69-17.76-18.43
				c-0.25-12.76-0.05-25.52-0.16-38.28c-0.03-3.72-0.2-7.48-0.73-11.16c-1.5-10.5-9.98-17.73-20.6-17.83
				c-10.54-0.09-19.11,7.14-20.92,17.53c-0.94,5.41-0.68,10.86-0.69,16.3c-0.04,16.03-0.11,32.06,0.07,48.09
				c0.04,3.32-0.85,4.06-4.1,3.82c-10.83-0.8-17.12-6.92-17.34-17.95c-0.25-12.76-0.06-25.52-0.17-38.28
				c-0.03-3.88-0.21-7.79-0.73-11.63c-1.41-10.43-9.97-17.76-20.56-17.88c-10.54-0.12-19.18,7.05-20.93,17.48
				c-1.4,8.35-0.57,16.77-0.71,25.16c-0.15,8.56,0.13,17.13-0.23,25.67c-0.47,11.45-7.85,17.92-19.16,17.51
				c-1.64-0.06-2.26-0.42-2.14-2.03c0.07-0.93,0.01-1.87,0.01-2.8c0-32.53,0-65.05,0-97.58c0-5.45,0.03-5.54,5.4-4.32
				c4.11,0.93,8.09,2.32,11.45,4.97c1.3,1.02,2.21,1.74,4,0.6c16.28-10.32,39.67-7.68,53.74,7.58c0.19,0.2,0.49,0.3,0.69,0.41
				c14.34-14.01,30.93-18.26,49.56-10.38c13.8,5.84,22.02,16.76,24.81,31.59c0.11,0.61,0.11,1.23,0.81,1.5
				C804.62,287.13,804.62,310.8,804.62,334.46z"/>
			<path class="st0" d="M394.91,247.99c-14.27,0-28.54,0.02-42.82-0.02c-3.57-0.01-7.17-0.03-10.72-0.39
				c-9-0.92-15.31-8.34-15.02-19.24c0.08-3.05,2.48-1.77,3.83-1.78c16.02-0.09,32.05-0.1,48.07-0.04c11.2,0.04,22.4,0,33.59,0.41
				c10.83,0.4,17.84,9.28,16.45,20c-0.26,2-1.73,2.86-2.88,4.02c-19.11,19.17-38.25,38.32-57.42,57.43
				c-1.09,1.08-2.5,1.85-3.73,2.74c1.74,2.12,3.23,1.41,4.48,1.42c16.18,0.15,32.36,0.02,48.53,0.4c10.15,0.24,17,8.59,16.49,18.78
				c-0.14,2.87-1.78,2.34-3.39,2.34c-13.85,0.01-27.69,0.05-41.54,0c-13.38-0.05-26.76,0.05-40.13-0.4
				c-11.18-0.38-17.79-8.48-16.98-19.59c0.15-2.06,1.47-2.97,2.62-4.13c19.23-19.27,38.48-38.53,57.76-57.75
				c1.09-1.08,2.51-1.82,3.78-2.72C395.57,248.96,395.24,248.47,394.91,247.99z"/>
			<path class="st0" d="M482.68,226.57c-29.29-0.62-53.79,23.36-54.33,53.16c-0.53,29.35,23.29,53.63,53.25,54.27
				c29.23,0.62,53.53-23.03,54.16-52.71C536.4,251.39,512.94,227.21,482.68,226.57z M481.98,312.49
				c-17.59-0.1-31.99-14.45-32.14-32.02c-0.15-17.66,14.48-32.37,32.23-32.41c17.9-0.03,32.24,14.32,32.21,32.26
				C514.26,298.24,499.85,312.59,481.98,312.49z"/>
			<path class="st0" d="M595.01,226.53c-29.55-0.02-53.76,24.18-53.77,53.73c-0.01,29.53,24.18,53.72,53.76,53.76
				c29.62,0.04,53.67-24.04,53.68-53.74C648.68,250.6,624.67,226.55,595.01,226.53z M594.99,312.5
				c-17.74,0.01-32.33-14.63-32.26-32.37c0.08-17.56,14.46-31.95,32.08-32.09c17.83-0.15,32.34,14.27,32.38,32.14
				C627.21,298.1,612.88,312.49,594.99,312.5z"/>
		</g>
	</g>
</g>
</svg>
