<?xml version="1.0" encoding="utf-8"?>
<!-- Generator: Adobe Illustrator 28.0.0, SVG Export Plug-In . SVG Version: 6.00 Build 0)  -->
<svg version="1.1" id="Capa_1" xmlns="http://www.w3.org/2000/svg" xmlns:xlink="http://www.w3.org/1999/xlink" x="0px" y="0px"
	 viewBox="0 0 1080 1080" style="enable-background:new 0 0 1080 1080;" xml:space="preserve">
<style type="text/css">
	.st0{fill:#FFFFFF;}
</style>
<path class="st0" d="M621.83,634.4c0,5.72-4.7,10.41-10.53,10.41H405.62c-31.78,0.14-57.84-25.54-57.96-57.45V446.28
	c0-5.72,4.7-10.43,10.55-10.43h205.66c31.78-0.12,57.84,25.55,57.96,57.45V634.4z"/>
<path class="st0" d="M732.93,634.91c0,12.57-6.98,11.06-13.08,6.47l-84.92-61.9v-78.17l84.92-62.04c7.37-6.1,13.08-4.57,13.08,6.49
	V634.91z"/>
<path class="st0" d="M541.56,33.52c-279.53-0.8-506.2,222.76-508.37,505.73c-1.99,278.11,225.65,506.52,506.37,508.09
	c278.1,1.55,506.03-224.04,507.43-505.56C1048.38,262.95,825.08,34.34,541.56,33.52z M539.71,955.01
	c-228.56-0.49-414.4-186.73-414.17-415.06c0.22-228.46,186.36-414.43,414.78-414.42c228.49,0.01,414.55,185.96,414.74,414.48
	C955.25,768.79,768.38,955.5,539.71,955.01z"/>
</svg>
